<?xml version="1.0" encoding="utf-8"?>
<!-- Generator: Adobe Illustrator 16.0.0, SVG Export Plug-In . SVG Version: 6.00 Build 0)  -->
<!DOCTYPE svg PUBLIC "-//W3C//DTD SVG 1.1//EN" "http://www.w3.org/Graphics/SVG/1.1/DTD/svg11.dtd">
<svg version="1.1" xmlns="http://www.w3.org/2000/svg" xmlns:xlink="http://www.w3.org/1999/xlink" x="0px" y="0px" width="550px"
	 height="241px" viewBox="0 0 550 241" enable-background="new 0 0 550 241" xml:space="preserve">
<g id="Layer_2">
	<path fill="#E1F4FB" d="M79.466,178.587c3.339-4.06,9.015-11.27,13.271-7.917c2.981,5.295,7.748,23.914,13.505,33.711
		c9.448,12.166,15.172,17.599,10.893,23.354c-8.651,10.846-37.135,5.207-44.494-12.714c-2.147-4.793-4.231-13.949-1.374-22.254
		C74.125,184.463,79.466,178.587,79.466,178.587z"/>
</g>
<g id="Layer_3">
</g>
<g id="Layer_1">
	<path fill="#E1F4FB" d="M79.261,54.362c0.274-1.561,0.604-3.094,0.981-4.601c3.996-16.245,13.404-29.209,30.648-36.225
		c1.478-0.591,3.012-1.143,4.605-1.656c3.625-1.152,7.33-2.039,11.086-2.65c36.132-6.044,66.514-3.17,93.906,2.281
		c1.544,0.302,3.076,0.621,4.604,0.944c38.395,8.113,71.092,20.685,105.978,19.587c1.528-0.045,3.064-0.121,4.601-0.221
		c15.209-1.01,30.896-4.734,47.702-12.652c19.86-9.357,40.05-6.217,58.275,4.929c10.283,6.279,19.937,15.108,28.548,25.679
		l0.029,0.033c1.212,1.48,2.404,2.999,3.579,4.557c27.999,37.242,43.555,92.896,30.792,136.033
		c-0.459,1.553-0.958,3.089-1.489,4.605c-3.686,10.502-9.176,20.183-16.719,28.479c-5.567,6.12-13.065,10.145-21.239,11.408
		c-0.505,0.078-1.009,0.143-1.515,0.202l0,0c-1.482,0.165-2.975,0.239-4.468,0.221l-17.531-0.188l-58.608-0.636h-0.198
		l-18.534-0.196h-0.033l-28.579-0.313l-4.602-0.049l-39.558-0.415l-44.317-0.479h-0.219l-7.19-0.079h-0.571l-14.123-0.153
		l-4.605-0.051l-5.385-0.056h-0.662l-62.811-0.684c-11.076-0.116-21.209-6.26-26.429-16.029c-2.827-5.293-6.152-11.73-9.714-19.005
		c-0.314-0.655-0.637-1.312-0.961-1.977c-0.725-1.507-1.461-3.041-2.207-4.605c-0.477-1.008-0.957-2.03-1.438-3.065
		C92.93,148.861,72.173,93.436,79.261,54.362z"/>
	<path fill="#E1F4FB" d="M506.158,91.664c-9.611-0.802-3.072-22.815-24.564-45.133c-8.443-8.768-38.438-23.148-37.976-28.188
		c0.504-5.512,29.367-12.033,54.363,8.962C540.779,67.44,515.77,92.466,506.158,91.664z"/>
	<g>
		<defs>
			<path id="SVGID_1_" d="M79.261,54.362c0.274-1.561,0.604-3.094,0.981-4.601c3.996-16.245,13.404-29.209,30.648-36.225
				c1.478-0.591,3.012-1.143,4.605-1.656c3.625-1.152,7.33-2.039,11.086-2.65c36.132-6.044,66.514-3.17,93.906,2.281
				c1.544,0.302,3.076,0.621,4.604,0.944c38.395,8.113,71.092,20.685,105.978,19.587c1.528-0.045,3.064-0.121,4.601-0.221
				c15.209-1.01,30.896-4.734,47.702-12.652c19.86-9.357,40.05-6.217,58.275,4.929c10.283,6.279,19.937,15.108,28.548,25.679
				l0.029,0.033c1.212,1.48,2.404,2.999,3.579,4.557c27.999,37.242,43.555,92.896,30.792,136.033
				c-0.459,1.553-0.958,3.089-1.489,4.605c-3.686,10.502-9.176,20.183-16.719,28.479c-5.567,6.12-13.065,10.145-21.239,11.408
				c-0.505,0.078-1.009,0.143-1.515,0.202l0,0c-1.482,0.165-2.975,0.239-4.468,0.221l-17.531-0.188l-58.608-0.636h-0.198
				l-18.534-0.196h-0.033l-28.579-0.313l-4.602-0.049l-39.558-0.415l-44.317-0.479h-0.219l-7.19-0.079h-0.571l-14.123-0.153
				l-4.605-0.051l-5.385-0.056h-0.662l-62.811-0.684c-11.076-0.116-21.209-6.26-26.429-16.029
				c-2.827-5.293-6.152-11.73-9.714-19.005c-0.314-0.655-0.637-1.312-0.961-1.977c-0.725-1.507-1.461-3.041-2.207-4.605
				c-0.477-1.008-0.957-2.03-1.438-3.065C92.93,148.861,72.173,93.436,79.261,54.362z"/>
		</defs>
		<clipPath id="SVGID_2_">
			<use xlink:href="#SVGID_1_"  overflow="visible"/>
		</clipPath>
		<g clip-path="url(#SVGID_2_)">
			<rect x="398.238" y="-59.182" fill="#CEE8F7" width="104.436" height="187.612"/>
			<rect x="403.487" y="-53.593" fill="#E1F4FB" width="95.014" height="176.583"/>
			<polygon fill="#B0D5F1" points="393.82,-60.874 398.238,-59.182 398.238,131.612 393.82,131.612 			"/>
			<path fill="#E1F4FB" d="M475.208,8.927c-8.226,7.645-16.45,15.29-24.676,22.935c-3.126,2.906-7.214,6.037-11.235,4.604
				c-1.934-0.689-3.39-2.34-5.285-3.13c-3.788-1.579-8.115,0.7-11.028,3.591c-2.913,2.891-5.212,6.507-8.741,8.603
				c-3.527,2.097-9.011,1.83-10.755-1.885V18.684l35.86-15.354L475.208,8.927z"/>
			<path fill="#E0E0E0" d="M498.501,23.273c-9.093,3.704-18.167,0.556-24.675-6.795c-1.371-1.547-2.618-3.335-4.5-4.188
				c-2.549-1.156-5.493-0.291-8.274,0.024c-7.601,0.861-15.539-2.986-19.572-9.487l30.358-14.933l26.663,0.194V23.273z"/>
			<path fill="#CEE8F7" d="M403.487,23.15c5.988,2.892,11.261-0.607,16.785-4.309c5.525-3.703,10.66-8.45,17.142-9.941
				c4.33-0.997,8.97-0.444,13.156-1.935c8.528-3.037,13.46-13.868,22.499-14.384c4.909-0.281,9.311,2.695,13.691,4.926
				c4.379,2.232,7.834,4.352,11.74,1.366v-52.467h-95.014V23.15z"/>
			<rect x="401.424" y="70.312" fill="#B0D5F1" width="97.077" height="1.88"/>
			<rect x="401.424" y="28.26" fill="#B0D5F1" width="97.077" height="1.88"/>
			<rect x="448.594" y="-58.6" fill="#B0D5F1" width="4.801" height="129.852"/>
			<rect x="478.03" y="71.252" fill="#B0D5F1" width="2.176" height="51.738"/>
			<rect x="459.274" y="71.251" fill="#B0D5F1" width="2.175" height="51.739"/>
			<rect x="440.518" y="71.251" fill="#B0D5F1" width="2.175" height="51.739"/>
			<rect x="421.761" y="71.251" fill="#B0D5F1" width="2.175" height="51.739"/>
			<rect x="502.674" y="-60.343" fill="#B0D5F1" width="4.417" height="191.956"/>
			<rect x="393.82" y="128.43" fill="#B0D5F1" width="113.271" height="5.119"/>
		</g>
		<g clip-path="url(#SVGID_2_)">
			<path fill="#E6E6E6" d="M289.83-8.274l0.901-1.396c-0.267-0.74-0.575-1.463-0.925-2.167l-0.584,0.471l0.462-0.715
				c-0.441-0.869-0.787-1.413-0.787-1.413c-1.112,1.817-1.927,3.799-2.415,5.874l1.159,1.791l-1.283-1.037
				c-0.044,0.353-0.068,0.707-0.068,1.062c0,3.577,1.167,6.478,2.607,6.478c1.441,0,2.609-2.9,2.609-6.478
				c-0.026-1.137-0.228-2.266-0.598-3.343L289.83-8.274z"/>
			<path fill="#E6E6E6" d="M296.219-5.173l1.627-0.348c0.334-0.712,0.626-1.442,0.878-2.189l-0.745-0.077l0.831-0.18
				c0.301-0.923,0.441-1.555,0.441-1.555c-2.07,0.5-4.049,1.324-5.861,2.445l-0.446,2.086l-0.175-1.64
				c-0.28,0.215-0.548,0.452-0.801,0.7c-2.527,2.531-3.753,5.409-2.733,6.427c1.018,1.019,3.896-0.207,6.427-2.736
				c0.785-0.824,1.438-1.763,1.94-2.786L296.219-5.173z"/>
			<path fill="#E6E6E6" d="M296.813,8.672c-3.766,0.241-7.873-0.014-12.24,0v-10c4.061,0.569,8.179,0.569,12.24,0V8.672z"/>
			<path fill="#CEE8F7" d="M294.487,38.309c-3.328,0.213-6.953-0.012-10.811,0v-8.831c3.586,0.503,7.224,0.503,10.811,0V38.309z"/>
			<rect x="168.013" y="7.538" fill="#B0D5F1" width="145.46" height="4.064"/>
			<circle fill="#B0D5F1" cx="289.096" cy="24.603" r="8.127"/>
			<path fill="#FFFFFF" d="M289.096,18.103c3.59,0,6.499,2.91,6.499,6.501c0,3.589-2.909,6.498-6.499,6.498
				c-3.593,0-6.502-2.909-6.502-6.498C282.594,21.013,285.503,18.103,289.096,18.103z"/>
			<path fill="#E6E6E6" d="M289.096,22.977c0.896,0,1.623,0.729,1.623,1.627c0,0.896-0.728,1.624-1.623,1.624
				c-0.899,0-1.626-0.728-1.626-1.624C287.47,23.707,288.196,22.977,289.096,22.977z"/>
			<rect x="288.281" y="24.197" fill="#E6E6E6" width="6.501" height="0.814"/>
			<rect x="288.689" y="18.916" fill="#E6E6E6" width="0.811" height="6.5"/>
			<rect x="236.73" y="-12.283" fill="#E6E6E6" width="5.376" height="21.283"/>
			<rect x="236.73" y="1.831" fill="#CCCCCC" width="5.376" height="2.465"/>
			<rect x="228.441" y="-12.283" fill="#E6E6E6" width="5.376" height="21.283"/>
			<rect x="228.441" y="1.831" fill="#CCCCCC" width="5.376" height="2.465"/>
			
				<rect x="246.362" y="-12.283" transform="matrix(-0.8963 0.4435 -0.4435 -0.8963 471.5413 -113.5686)" fill="#E6E6E6" width="5.378" height="21.283"/>
			
				<rect x="248.452" y="1.343" transform="matrix(-0.8961 0.4438 -0.4438 -0.8961 477.34 -106.5635)" fill="#CCCCCC" width="5.376" height="2.464"/>
			<rect x="188.785" y="16.565" fill="#CEE8F7" width="5.378" height="21.283"/>
			<rect x="188.785" y="19.925" fill="#B0D5F1" width="5.378" height="2.465"/>
			<rect x="188.785" y="30.68" fill="#B0D5F1" width="5.378" height="2.463"/>
			<rect x="180.496" y="16.565" fill="#CEE8F7" width="5.377" height="21.283"/>
			<rect x="180.496" y="19.925" fill="#B0D5F1" width="5.377" height="2.465"/>
			<rect x="180.496" y="30.68" fill="#B0D5F1" width="5.377" height="2.463"/>
			
				<rect x="198.419" y="16.564" transform="matrix(-0.8961 0.4438 -0.4438 -0.8961 393.3966 -37.6707)" fill="#CEE8F7" width="5.376" height="21.286"/>
			
				<rect x="195.735" y="20.554" transform="matrix(-0.8962 0.4437 -0.4437 -0.8962 385.9127 -46.7266)" fill="#B0D5F1" width="5.376" height="2.465"/>
			
				<rect x="200.506" y="30.19" transform="matrix(-0.8962 0.4437 -0.4437 -0.8962 399.2353 -30.5715)" fill="#B0D5F1" width="5.376" height="2.464"/>
			<rect x="239.167" y="16.565" fill="#CEE8F7" width="5.379" height="21.283"/>
			<rect x="239.167" y="19.925" fill="#B0D5F1" width="5.379" height="2.465"/>
			<rect x="239.167" y="30.68" fill="#B0D5F1" width="5.379" height="2.463"/>
			<rect x="230.879" y="16.565" fill="#CEE8F7" width="5.377" height="21.283"/>
			<rect x="230.879" y="19.925" fill="#B0D5F1" width="5.377" height="2.465"/>
			<rect x="230.879" y="30.68" fill="#B0D5F1" width="5.377" height="2.463"/>
			
				<rect x="248.802" y="16.564" transform="matrix(-0.8961 0.4438 -0.4438 -0.8961 488.9319 -60.0228)" fill="#CEE8F7" width="5.377" height="21.285"/>
			
				<rect x="246.117" y="20.554" transform="matrix(-0.8963 0.4435 -0.4435 -0.8963 481.4659 -69.0339)" fill="#B0D5F1" width="5.378" height="2.465"/>
			
				<rect x="250.888" y="30.191" transform="matrix(-0.8963 0.4435 -0.4435 -0.8963 494.783 -52.8866)" fill="#B0D5F1" width="5.378" height="2.464"/>
			<rect x="301.081" y="135.323" fill="#2368A0" width="78.013" height="101.171"/>
			<rect x="138.148" y="140.606" fill="#2368A0" width="4.064" height="95.888"/>
			<rect x="76" y="128.416" fill="#0D416B" width="303.094" height="8.126"/>
			<rect x="136.117" y="136.542" fill="#0D416B" width="8.126" height="8.128"/>
			<polygon fill="#B0D5F1" points="346.232,141.215 345.775,143.045 334.398,143.045 333.712,141.215 304.736,141.215 
				304.736,159.905 375.436,159.905 375.436,141.215 			"/>
			<polygon fill="#B0D5F1" points="346.232,164.779 345.775,166.608 334.398,166.608 333.712,164.779 304.736,164.779 
				304.736,183.472 375.436,183.472 375.436,164.779 			"/>
			<polygon fill="#B0D5F1" points="346.232,188.348 345.775,190.177 334.398,190.177 333.712,188.348 304.736,188.348 
				304.736,207.038 375.436,207.038 375.436,188.348 			"/>
			<polygon fill="#B0D5F1" points="346.232,211.913 345.775,213.741 334.398,213.741 333.712,211.913 304.736,211.913 
				304.736,230.604 375.436,230.604 375.436,211.913 			"/>
			<polygon fill="#00AAE7" points="251.917,127.195 227.944,127.195 228.757,116.632 251.104,116.632 			"/>
			<rect x="226.725" y="125.978" fill="#00AAE7" width="26.816" height="2.438"/>
			<path fill="#0D416B" d="M285.843,48.576h-91.622c-1.348,0-2.44,1.092-2.44,2.438l0,0v55.866h96.5V51.014
				C288.281,49.667,287.189,48.576,285.843,48.576L285.843,48.576z"/>
			<path fill="#00AAE7" d="M191.781,106.88v9.145c0,1.347,1.092,2.438,2.44,2.438l0,0h91.622c1.347,0,2.438-1.091,2.438-2.438l0,0
				v-9.145H191.781z"/>
			<rect x="196.658" y="53.655" fill="#FFFFFF" width="86.951" height="48.757"/>
			<circle fill="#0D416B" cx="240.133" cy="112.57" r="2.438"/>
			<path fill="#2368A0" d="M279.58,64.869h-12.303c-0.84-4.852-0.84-9.813,0-14.668h12.303
				C278.194,54.992,278.202,60.078,279.58,64.869z"/>
			<path fill="#232527" d="M190.062,94.271l-5.064-1.234c-7.194,0.01-13.036-5.818-13.046-13.014c0-0.872,0.086-1.743,0.257-2.598
				l0,0c-0.01-9.407,7.605-17.041,17.011-17.053h0.001c9.406-0.011,17.041,7.604,17.053,17.011l0,0
				C209.145,87.369,200.155,96.73,190.062,94.271z"/>
			<circle fill="#FFB8B8" cx="195.59" cy="83.536" r="12.514"/>
			<path fill="#FFB8B8" d="M187.428,90.065c0,0-3.809,13.058-5.985,14.146c-2.177,1.087,17.412,2.72,17.412,2.72
				s-0.545-12.515,0.544-13.604C200.486,92.241,187.428,90.065,187.428,90.065z"/>
			<path fill="#232527" d="M207.017,170.593c0,0,24.484-2.174,27.749,5.985c3.265,8.164-2.177,56.59-2.177,56.59h-10.336v-39.723
				c0,0-44.081-12.529-44.081-16.881C178.171,172.211,207.017,170.593,207.017,170.593z"/>
			<path fill="#232527" d="M230.956,230.99l5.441,2.178c0,0,6.531-0.546,3.809,4.351c-1.576,2.882-4.382,4.884-7.618,5.442
				c0,0-10.336,3.81-10.881,0c-0.544-3.81,2.722-11.427,2.722-11.427L230.956,230.99z"/>
			<path fill="#232527" d="M193.414,170.593c0,0,24.484-2.174,27.75,5.985c3.266,8.164-2.175,56.59-2.175,56.59h-10.339v-39.723
				c0,0-31.29-7.247-31.29-11.599c0-2.044-2.133-12.438,1.625-14.627C183.224,164.748,193.414,170.593,193.414,170.593z"/>
			<path fill="#232527" d="M217.354,230.99l5.442,2.178c0,0,6.529-0.546,3.808,4.351c-1.576,2.882-4.38,4.884-7.615,5.442
				c0,0-10.339,3.81-10.884,0c-0.545-3.81,2.72-11.427,2.72-11.427L217.354,230.99z"/>
			<path fill="#EF4048" d="M181.987,102.579l16.352,1.777c5.177,0.563,9.405,4.39,10.482,9.484l6.357,30.092
				c0,0,2.176,29.926-2.176,31.559c-4.353,1.633-10.339-6.53-18.5-5.441c-8.163,1.089-18.773,3.536-18.773,3.536
				s-1.684-53.565-1.904-57.947C173.387,106.879,181.987,102.579,181.987,102.579z"/>
			<path fill="#FFB8B8" d="M220.72,172.147l6.712,3.954c0,0,12.044-1.728,11.667,2.506c-0.375,4.233-13.52,3.415-13.52,3.415
				l-8.092-4.984L220.72,172.147z"/>
			<circle fill="#232527" cx="171.299" cy="65.274" r="8.084"/>
			<path fill="#232527" d="M178.757,60.928c-0.003-4.463-3.624-8.078-8.087-8.073c-0.532,0-1.063,0.053-1.588,0.158
				c4.035-1.906,8.852-0.181,10.759,3.854c1.906,4.035,0.181,8.851-3.854,10.757c-0.593,0.28-1.221,0.489-1.864,0.618
				C176.955,66.907,178.76,64.059,178.757,60.928z"/>
			<path fill="#232527" d="M185.692,65.513l10.897-2.007l8.383,5.252c4.207,2.638,6.494,7.483,5.855,12.408l-8.395-2.128
				l-1.88-4.713l-2.237,3.67l-11.705,15.063l-6.573-4.183l-5.858-9.182L185.692,65.513z"/>
			<path fill="#EF4048" d="M194.667,107.21l5.442-2.721c0,0,11.427,1.63,13.604,9.249c2.175,7.616,11.968,60.396,11.968,60.396
				l-9.249,4.354l-13.058-32.104L194.667,107.21z"/>
			<polygon opacity="0.2" enable-background="new    " points="199.3,128.62 204.745,149.757 214.403,173.497 214.067,174.317 
				202.549,150.154 			"/>
			<polygon fill="#0D416B" points="158.667,245.192 156.747,244.529 175.35,189.271 178.04,190.197 			"/>
			<polygon fill="#0D416B" points="229.774,245.192 231.694,244.529 213.09,189.271 210.402,190.197 			"/>
			<polygon fill="#0D416B" points="190.463,256.604 192.494,256.611 193.124,192.015 190.281,192.003 			"/>
			<path fill="#2368A0" d="M153.964,156.801l5.572,22.522c1.591,6.426,6.603,11.451,13.026,13.057l0,0
				c15.542,3.885,31.813,3.778,47.302-0.306l8.32-2.194c4.834-1.273,8.469-5.426,8.814-10.414c0.139-1.764-0.18-3.533-0.928-5.137
				c-0.032-0.068-0.064-0.137-0.099-0.205c-2.21-4.542-6.759-7.485-11.809-7.637l-8.813-0.284l-32.1-14.22
				c0,0-11.04-5.609-20.115-6.236C157.142,145.332,152.521,150.968,153.964,156.801z"/>
			<rect x="317.944" y="85.956" fill="#2368A0" width="31.69" height="43.069"/>
			<rect x="321.6" y="90.926" fill="#FFFFFF" width="24.378" height="33.129"/>
			<rect x="331.195" y="99.595" fill="#00AAE7" width="11.81" height="1.346"/>
			<rect x="324.571" y="98.851" fill="#00AAE7" width="2.871" height="2.871"/>
			<rect x="331.195" y="105.284" fill="#00AAE7" width="11.81" height="1.345"/>
			<rect x="324.571" y="104.539" fill="#00AAE7" width="2.871" height="2.87"/>
			<rect x="331.195" y="110.972" fill="#00AAE7" width="11.81" height="1.346"/>
			<rect x="324.571" y="110.228" fill="#00AAE7" width="2.871" height="2.869"/>
			<path fill="#0D416B" d="M333.789,87.174L333.789,87.174c0.673,0,1.218,0.547,1.218,1.22l0,0c0,0.673-0.545,1.22-1.218,1.22l0,0
				c-0.674,0-1.218-0.546-1.218-1.22l0,0C332.571,87.721,333.115,87.174,333.789,87.174z"/>
			<g>
				<polygon fill="#B0D5F1" points="442.93,216.437 440.491,216.437 441.303,168.812 442.116,168.812 				"/>
				<polygon fill="#B0D5F1" points="453.9,216.758 451.462,216.758 452.273,169.134 453.086,169.134 				"/>
				<polygon fill="#B0D5F1" points="433.179,216.758 430.738,216.758 431.552,169.134 432.364,169.134 				"/>
				<path fill="#00AAE7" d="M444.96,138.339l3.937-6.083c-1.169-3.222-2.516-6.378-4.038-9.451l-2.545,2.056l2.016-3.113
					c-1.922-3.778-3.432-6.162-3.432-6.162s-7.893,12.438-10.529,25.606l5.051,7.807l-5.592-4.518
					c-0.199,1.533-0.302,3.078-0.307,4.624c0,15.598,5.095,28.242,11.377,28.242c6.283,0,11.376-12.645,11.376-28.242
					c0-4.833-1.094-9.891-2.603-14.57L444.96,138.339z"/>
				<path fill="#2368A0" d="M455.93,139.152l3.937-6.083c-1.168-3.223-2.515-6.379-4.036-9.45l-2.546,2.055l2.015-3.114
					c-1.92-3.78-3.431-6.161-3.431-6.161s-7.894,12.437-10.53,25.606l5.052,7.804l-5.591-4.516
					c-0.199,1.534-0.303,3.078-0.308,4.627c0,15.596,5.094,28.237,11.377,28.237s11.377-12.642,11.377-28.237
					c0-4.835-1.095-9.895-2.604-14.573L455.93,139.152z"/>
				<path fill="#0D416B" d="M435.208,139.152l3.937-6.083c-1.168-3.223-2.516-6.379-4.037-9.45l-2.546,2.055l2.015-3.114
					c-1.921-3.78-3.431-6.161-3.431-6.161s-7.893,12.437-10.53,25.606l5.051,7.804l-5.591-4.516c-0.199,1.534-0.3,3.078-0.305,4.627
					c0,15.596,5.092,28.237,11.375,28.237s11.378-12.642,11.378-28.237c0-4.835-1.093-9.895-2.604-14.573L435.208,139.152z"/>
				<path fill="#0D416B" d="M456.336,237.887c-8.878,0.567-18.555-0.033-28.847,0v-23.565c9.071,1.411,18.742,1.266,28.847,0
					V237.887z"/>
			</g>
			<rect x="168.013" y="36.385" fill="#B0D5F1" width="145.46" height="4.065"/>
			<g>
				<path fill="#B0D5F1" d="M225.664,59.742c-0.26,0-0.47,0.211-0.471,0.471v7.88c0.001,0.259,0.211,0.47,0.471,0.471h31.765
					c0.26-0.001,0.47-0.211,0.471-0.471v-7.88c-0.001-0.26-0.211-0.47-0.471-0.471H225.664z"/>
				<circle fill="#0D416B" cx="229.781" cy="64.153" r="2.471"/>
				<path fill="#CEE8F7" d="M235.486,62.506c-0.227,0-0.412,0.184-0.412,0.412s0.185,0.412,0.412,0.412h19.413
					c0.227,0,0.412-0.185,0.412-0.412s-0.185-0.412-0.412-0.412H235.486z"/>
				<path fill="#CEE8F7" d="M235.486,64.977c-0.227,0-0.412,0.185-0.412,0.412s0.185,0.412,0.412,0.412h19.413
					c0.227,0,0.412-0.185,0.412-0.412s-0.185-0.412-0.412-0.412H235.486z"/>
			</g>
			<g>
				<path fill="#B0D5F1" d="M225.664,73.272c-0.26,0-0.47,0.211-0.471,0.471v7.88c0.001,0.26,0.211,0.47,0.471,0.471h31.765
					c0.26,0,0.47-0.211,0.471-0.471v-7.88c-0.001-0.26-0.211-0.47-0.471-0.471H225.664z"/>
				<circle fill="#0D416B" cx="229.781" cy="77.683" r="2.471"/>
				<path fill="#CEE8F7" d="M235.486,76.036c-0.227,0-0.412,0.184-0.412,0.412s0.185,0.412,0.412,0.412h19.413
					c0.227,0,0.412-0.185,0.412-0.412s-0.185-0.412-0.412-0.412H235.486z"/>
				<path fill="#CEE8F7" d="M235.486,78.506c-0.227,0-0.412,0.185-0.412,0.412s0.185,0.412,0.412,0.412h19.413
					c0.227,0,0.412-0.184,0.412-0.412s-0.185-0.412-0.412-0.412H235.486z"/>
			</g>
			<g>
				<path fill="#B0D5F1" d="M225.664,86.802c-0.26,0-0.47,0.211-0.471,0.471v7.88c0.001,0.26,0.211,0.47,0.471,0.471h31.765
					c0.26,0,0.47-0.211,0.471-0.471v-7.88c-0.001-0.259-0.211-0.47-0.471-0.471H225.664z"/>
				<circle fill="#0D416B" cx="229.781" cy="91.212" r="2.471"/>
				<path fill="#CEE8F7" d="M235.486,89.565c-0.227,0-0.412,0.185-0.412,0.412s0.185,0.412,0.412,0.412h19.413
					c0.227,0,0.412-0.185,0.412-0.412s-0.185-0.412-0.412-0.412H235.486z"/>
				<path fill="#CEE8F7" d="M235.486,92.036c-0.227,0-0.412,0.185-0.412,0.412s0.185,0.412,0.412,0.412h19.413
					c0.227,0,0.412-0.184,0.412-0.412s-0.185-0.412-0.412-0.412H235.486z"/>
			</g>
			<polygon fill="#FFFFFF" points="229.254,78.975 228.369,77.837 228.884,77.437 229.303,77.976 230.719,76.481 231.192,76.929 			
				"/>
			<polygon fill="#FFFFFF" points="229.254,65.4 228.369,64.262 228.884,63.861 229.303,64.4 230.719,62.906 231.192,63.354 			"/>
			<g>
				<path fill="#FFFFFF" d="M231.116,92.495h-0.692l-0.665-0.97l-0.665,0.97h-0.649l0.948-1.323l-0.887-1.243h0.668l0.616,0.923
					l0.604-0.923h0.653l-0.897,1.272L231.116,92.495z"/>
			</g>
		</g>
	</g>
	<g>
		
			<rect x="128.683" y="106.568" transform="matrix(-0.9914 -0.1311 0.1311 -0.9914 243.8353 245.7881)" fill="#232527" width="2.655" height="16.594"/>
		
			<rect x="130.131" y="101.187" transform="matrix(-0.9913 -0.1313 0.1313 -0.9913 248.1306 224.2132)" fill="#0D416B" width="2.655" height="5.477"/>
		<g>
			<path fill="#232527" d="M137.433,108.446l1.393-0.918l-0.146-1.38c-0.026-0.251-0.251-0.433-0.502-0.407
				c-0.128,0.014-0.244,0.08-0.32,0.184l-0.767,1.042L137.433,108.446z"/>
			<path fill="#00AAE7" d="M134.323,115.518l2.768-8.552l1.735,0.562l-2.768,8.552c-0.155,0.479-0.669,0.741-1.148,0.587
				C134.433,116.509,134.171,115.997,134.323,115.518L134.323,115.518z"/>
			<path fill="#2F2E41" d="M134.323,115.518l0.271-0.835c0.639-0.206,1.338,0.02,1.735,0.562l-0.271,0.835
				c-0.155,0.479-0.669,0.741-1.148,0.587C134.433,116.509,134.171,115.997,134.323,115.518L134.323,115.518z"/>
		</g>
		<rect x="125.392" y="106.264" fill="#232527" width="2.655" height="16.594"/>
		<rect x="125.392" y="100.788" fill="#2368A0" width="2.655" height="5.477"/>
		
			<rect x="130.159" y="108.446" transform="matrix(-0.9466 -0.3224 0.3224 -0.9466 218.3146 269.644)" fill="#232527" width="2.655" height="16.595"/>
		
			<rect x="133.718" y="103.559" transform="matrix(-0.9466 -0.3224 0.3224 -0.9466 228.6097 250.4566)" fill="#2368A0" width="2.655" height="5.477"/>
		<path fill="#2368A0" d="M123.068,111.409h15.267l0,0v13.193c0,2.154-1.746,3.901-3.899,3.901h-7.468c-2.154,0-3.9-1.747-3.9-3.901
			V111.409L123.068,111.409z"/>
		<g opacity="0.1">
			<path d="M123.068,111.409v0.664h14.604v13.193c0.001,0.872-0.291,1.72-0.83,2.404c0.943-0.738,1.494-1.87,1.493-3.068v-13.193
				H123.068z"/>
		</g>
	</g>
</g>
</svg>
