<svg id="Layer_1" data-name="Layer 1" xmlns="http://www.w3.org/2000/svg" xmlns:xlink="http://www.w3.org/1999/xlink" viewBox="0 0 295 150"><defs><style>.cls-1,.cls-4,.cls-8{fill:#dff2fe;}.cls-1{clip-rule:evenodd;}.cls-2{fill:#f9fcff;}.cls-3{fill:none;}.cls-14,.cls-4{fill-rule:evenodd;}.cls-5{clip-path:url(#clip-path);}.cls-6{fill:#f2faff;}.cls-7{clip-path:url(#clip-path-2);}.cls-9{fill:#b0d5f1;}.cls-10{fill:#fff;}.cls-11{fill:#d0e6f7;}.cls-12{fill:#e1f4fb;}.cls-13{fill:#d2ecf9;}.cls-14,.cls-15{fill:#2368a0;}.cls-16{fill:#1d4e6c;}.cls-17{fill:#083564;}.cls-18{fill:#0d416b;}.cls-19{fill:#00aae7;}.cls-20{fill:#ecac90;}.cls-21{fill:#232527;}.cls-22{isolation:isolate;}.cls-23{clip-path:url(#clip-path-3);}</style><clipPath id="clip-path"><path class="cls-1" d="M254.26,150c7.47-18.28,19-57,.65-92.86C248.67,44.93,239.49,27,221.72,21.91c-21.9-6.26-42.66,11.07-63.32-2-4.23-2.69-3.89-3.76-8.17-7.15-27.65-22-87.67-13.85-99.06,11.74-6,13.48,6.33,21,.51,42.38C46.62,85.47,35,88.41,31.25,102.59c-2.6,9.94-1.17,25,16.63,47.41Z"/></clipPath><clipPath id="clip-path-2"><circle class="cls-2" cx="85.33" cy="25.35" r="13.56" transform="translate(46.55 105.48) rotate(-80.72)"/></clipPath><clipPath id="clip-path-3"><polygon class="cls-3" points="165.53 83.92 165.53 81.14 167.79 82.44 167.78 85.22 165.53 83.92"/></clipPath></defs><path class="cls-4" d="M254.26,150c7.47-18.28,19-57,.65-92.86C248.67,44.93,239.49,27,221.72,21.91c-21.9-6.26-42.66,11.07-63.32-2-4.23-2.69-3.89-3.76-8.17-7.15-27.65-22-87.67-13.85-99.06,11.74-6,13.48,6.33,21,.51,42.38C46.62,85.47,35,88.41,31.25,102.59c-2.6,9.94-1.17,25,16.63,47.41Z"/><g class="cls-5"><rect class="cls-6" x="67.94" y="8.93" width="68.25" height="76.78"/><circle class="cls-2" cx="85.33" cy="25.35" r="13.56" transform="translate(46.55 105.48) rotate(-80.72)"/><g class="cls-7"><rect class="cls-8" x="83.34" y="29.96" width="3.97" height="5.89"/><path class="cls-8" d="M85.33,17.52c-1.93,0-5,1.09-5,6.22a10.77,10.77,0,0,0,.3,2.5,6,6,0,0,0,3.93,4.34h0a2.34,2.34,0,0,0,1.26.05l.21-.05A6,6,0,0,0,90,26.24a11.34,11.34,0,0,0,.3-2.5C90.3,18.61,87.25,17.52,85.33,17.52Z"/><path class="cls-8" d="M90.53,23.64c.39.09.62.64.49,1.24s-.55,1-1,.95-.62-.64-.49-1.24S90.13,23.56,90.53,23.64Z"/><path class="cls-8" d="M80.13,23.64c-.4.09-.62.64-.5,1.24s.55,1,1,.95.62-.64.5-1.24S80.53,23.56,80.13,23.64Z"/><path class="cls-9" d="M88.41,32.24c-.62-.27-1.1-.44-1.1-.44a2.56,2.56,0,0,1-4,0s-.47.17-1.1.44a5.57,5.57,0,0,0-3.34,4.44c-.19,1.61-.26,3.18-.26,3.18H92s-.06-1.53-.25-3.13A5.62,5.62,0,0,0,88.41,32.24Z"/><path class="cls-9" d="M80.35,23.65a3.56,3.56,0,0,1,3-1.26c5,.48,2.14-2.87,4.77-2.08,1.6.48.71,2,2,3.25l.19.09.17-.74a5.15,5.15,0,0,0-2.9-5.73,5.23,5.23,0,0,0-4.76.21h0a5.15,5.15,0,0,0-2.59,5Z"/></g><rect class="cls-9" x="103.2" y="11.79" width="28.82" height="7.91"/><rect class="cls-9" x="103.2" y="23.68" width="22.63" height="1.67"/><rect class="cls-9" x="103.2" y="27.14" width="27.09" height="1.67"/><rect class="cls-9" x="103.2" y="30.6" width="17.81" height="1.67"/><rect class="cls-9" x="103.2" y="34.05" width="24.93" height="1.67"/><rect class="cls-9" x="72.44" y="43.12" width="22.63" height="1.67"/><rect class="cls-9" x="72.44" y="46.58" width="27.09" height="1.67"/><rect class="cls-9" x="72.44" y="50.03" width="17.81" height="1.67"/><rect class="cls-9" x="72.44" y="53.49" width="24.93" height="1.67"/><rect class="cls-8" x="103.2" y="40.19" width="28.82" height="14.97"/><rect class="cls-9" x="72.44" y="58.96" width="60.26" height="14.97"/><rect class="cls-8" x="75.25" y="63.43" width="54.64" height="1.28"/><rect class="cls-8" x="75.25" y="66.15" width="41.63" height="1.28"/><rect class="cls-8" x="75.25" y="68.87" width="50.18" height="1.28"/><rect class="cls-6" x="72.44" y="75.12" width="28.13" height="6.63"/><rect class="cls-6" x="101.6" y="75.12" width="16.48" height="6.63"/><rect class="cls-9" x="118.8" y="75.12" width="13.9" height="6.63"/><path class="cls-10" d="M179.41,39.33a2.18,2.18,0,1,1-2.17-2.25A2.21,2.21,0,0,1,179.41,39.33Z"/><polygon class="cls-9" points="177.24 29.84 168.68 39.32 185.79 39.32 177.24 29.84"/><path class="cls-9" d="M178.68,34.09h-2.89V29.58a1.47,1.47,0,0,1,1.45-1.49h0a1.47,1.47,0,0,1,1.44,1.49Z"/><rect class="cls-9" x="176.92" y="13.01" width="0.63" height="15.07"/><path class="cls-10" d="M159.11,45.38a2.18,2.18,0,1,1-2.18-2.25A2.21,2.21,0,0,1,159.11,45.38Z"/><polygon class="cls-9" points="156.93 35.89 148.38 45.37 165.49 45.37 156.93 35.89"/><path class="cls-9" d="M158.38,40.14h-2.89V35.63a1.47,1.47,0,0,1,1.44-1.49h0a1.47,1.47,0,0,1,1.45,1.49Z"/><rect class="cls-9" x="156.62" y="7.84" width="0.63" height="26.3"/></g><path class="cls-9" d="M44.69,108.05H62.33a0,0,0,0,1,0,0v19.41a0,0,0,0,1,0,0H42.93a0,0,0,0,1,0,0V109.82A1.76,1.76,0,0,1,44.69,108.05Z"/><rect class="cls-8" x="44.17" y="109.29" width="16.92" height="16.92"/><rect class="cls-11" x="44.64" y="109.77" width="15.98" height="15.98"/><circle class="cls-8" cx="52.63" cy="120.21" r="0.7"/><circle class="cls-9" cx="52.63" cy="120.21" r="0.49"/><rect class="cls-8" x="49.69" y="122.85" width="5.88" height="0.88" rx="0.44"/><rect class="cls-8" x="48.69" y="113.05" width="7.88" height="1.37"/><path class="cls-9" d="M62.33,108.05H80a1.76,1.76,0,0,1,1.76,1.76v17.64a0,0,0,0,1,0,0H62.33a0,0,0,0,1,0,0V108.05A0,0,0,0,1,62.33,108.05Z"/><rect class="cls-8" x="63.57" y="109.29" width="16.92" height="16.92"/><rect class="cls-11" x="64.05" y="109.77" width="15.98" height="15.98"/><circle class="cls-8" cx="72.04" cy="120.21" r="0.7"/><circle class="cls-9" cx="72.04" cy="120.21" r="0.49"/><rect class="cls-8" x="69.1" y="122.85" width="5.88" height="0.88" rx="0.44"/><rect class="cls-8" x="68.1" y="113.05" width="7.88" height="1.37"/><rect class="cls-9" x="42.93" y="127.46" width="19.41" height="19.41"/><rect class="cls-8" x="44.17" y="128.7" width="16.92" height="16.92"/><rect class="cls-11" x="44.64" y="129.18" width="15.98" height="15.98"/><circle class="cls-8" cx="52.63" cy="139.61" r="0.7"/><circle class="cls-9" cx="52.63" cy="139.61" r="0.49"/><rect class="cls-8" x="49.69" y="142.26" width="5.88" height="0.88" rx="0.44"/><rect class="cls-8" x="48.69" y="132.46" width="7.88" height="1.37"/><rect class="cls-9" x="62.33" y="127.46" width="19.41" height="19.41"/><rect class="cls-8" x="63.57" y="128.7" width="16.92" height="16.92"/><rect class="cls-11" x="64.05" y="129.18" width="15.98" height="15.98"/><circle class="cls-8" cx="72.04" cy="139.61" r="0.7"/><circle class="cls-9" cx="72.04" cy="139.61" r="0.49"/><rect class="cls-8" x="69.1" y="142.26" width="5.88" height="0.88" rx="0.44"/><rect class="cls-8" x="68.1" y="132.46" width="7.88" height="1.37"/><rect class="cls-9" x="50.99" y="99.04" width="3.6" height="14.46" transform="translate(-53.48 159.06) rotate(-90)"/><circle class="cls-12" cx="57.72" cy="106.27" r="0.95"/><rect class="cls-12" x="48.03" y="103.43" width="2.42" height="5.69" transform="translate(-57.03 155.51) rotate(-90)"/><rect class="cls-9" x="50.32" y="95.52" width="3.6" height="14.46" transform="translate(-50.64 154.87) rotate(-90)"/><circle class="cls-13" cx="57.04" cy="102.75" r="0.95"/><rect class="cls-13" x="47.36" y="99.91" width="2.42" height="5.69" transform="translate(-54.19 151.32) rotate(-90)"/><rect class="cls-9" x="63.13" y="93.6" width="3.6" height="14.46"/><circle class="cls-12" cx="64.92" cy="105.75" r="0.95"/><rect class="cls-12" x="63.72" y="94.43" width="2.42" height="5.69"/><rect class="cls-9" x="66.96" y="93.6" width="3.6" height="14.46"/><circle class="cls-12" cx="68.76" cy="105.75" r="0.95"/><rect class="cls-12" x="67.55" y="94.43" width="2.42" height="5.69"/><rect class="cls-9" x="73.67" y="93.6" width="3.6" height="14.46" transform="translate(-36.19 42.57) rotate(-25.64)"/><circle class="cls-12" cx="77.59" cy="105.26" r="0.95"/><rect class="cls-12" x="72.72" y="94.78" width="2.42" height="5.69" transform="translate(-34.96 41.59) rotate(-25.64)"/><path class="cls-14" d="M258,150H37.84a1.81,1.81,0,0,1-1.8-1.8h0a1.81,1.81,0,0,1,1.8-1.8H258a1.81,1.81,0,0,1,1.8,1.8h0A1.81,1.81,0,0,1,258,150Z"/><rect class="cls-15" x="206.71" y="115.81" width="1.6" height="29.48"/><path class="cls-15" d="M208.32,126.92V115.81h-1.61v13.88Z"/><rect class="cls-15" x="200.24" y="145.29" width="14.56" height="1.11"/><rect class="cls-15" x="193.15" y="111.34" width="28.73" height="2.24"/><path class="cls-15" d="M195.26,113.57h20.36l1.89-2.23h-21.1Z"/><polygon class="cls-16" points="202.73 113.57 203.81 115.81 211.22 115.81 212.3 113.57 202.73 113.57"/><path class="cls-17" d="M175.48,141.7a25.85,25.85,0,0,0-.73,2.76c0,.36-1.15,1.48-1.15,1.48s-9.87-8.77-10.5-9.53l.07-.66a4.1,4.1,0,0,1,1.1-.94c.46-.2,6,2.32,6,2.32Z"/><path class="cls-18" d="M170.28,137.13c-.13.26,3.39,3.9,5.2,4.57l11.77-25.47,19.7-6.56.24-12.47-8-.07s-15.69,8.34-16.29,8.82S174.5,128.27,170.28,137.13Z"/><polygon class="cls-15" points="177.62 87.23 188.32 84.48 193.3 73.47 195.4 77.27 195.94 81.43 191.78 87.8 180.05 90.19 177.62 87.23"/><path class="cls-19" d="M218.38,98.85s-15.1-1-19.2-1.72c0,0-.73-5-1-6.95a3,3,0,0,0-.07-.38c-.07-.25-.69-2.08-1.41-4.19-.93-2.74-2-6-2.39-6.92a33.22,33.22,0,0,1-1-5.22,23.87,23.87,0,0,1,2-2.27,10.57,10.57,0,0,1,2.34-.43l.33,0,6.54-1.22.86,0,3.08.08.84,0c.17,0,2,.14,3.56,2.68a6.82,6.82,0,0,1,.5,1.09c1.62,4.21,3.88,16,4,16.69S218.38,98.85,218.38,98.85Z"/><path class="cls-20" d="M205.37,69.53a23.19,23.19,0,0,1-2.48,4.79,6.91,6.91,0,0,1-3.63,2.2s-1.83-1.32-2-2.54a12.94,12.94,0,0,1,.34-3.21l.33,0,6.54-1.22Z"/><path class="cls-20" d="M204.51,69.51a27.25,27.25,0,0,1-3.5,3.43,3.26,3.26,0,0,1-2.32.16l-.44-2.64-.14-.85L197.23,68l5.45-3.18.08.18.48,1A13.82,13.82,0,0,0,204.51,69.51Z"/><path class="cls-21" d="M202.55,51.8a3.64,3.64,0,0,1,1.27-.16c.54.08,1.16,1.35,1.43,1.77a23.42,23.42,0,0,1,.88,5.24A25.61,25.61,0,0,1,205,63.89,6.8,6.8,0,0,1,203.24,66l-1.08-2.23Z"/><path class="cls-21" d="M193.92,59.69s-1.81-2.81-1.84-3.7S194,55,194,55l1.93,2.34Z"/><path class="cls-20" d="M202.75,60.62s1-1.15,1.64-1.1.58,1.66.29,2.17a10.11,10.11,0,0,1-2,1.62Z"/><path class="cls-20" d="M202.5,65.23a11.69,11.69,0,0,1-3.28,3.41h0a.55.55,0,0,1-.22.09h-2.1a8.46,8.46,0,0,1-2.8-3.15c-.35-1-.35-7.7-.35-7.7.16-2.86,3.73-3.83,5.8-3.83a3.64,3.64,0,0,1,3.62,3.25,8.74,8.74,0,0,1,.11.91C203.43,60.36,203.1,64,202.5,65.23Z"/><path class="cls-21" d="M194.35,57.57s-1.74-.54-2.2-1.42.66-4.16,3.7-5,4.24-.88,5.16-.57a3.41,3.41,0,0,1,1.54,1.27s.58,2.54.89,4.5a11.16,11.16,0,0,1,0,4.2,7.09,7.09,0,0,1-.58,1.31l-.58.12s.43-3.51,0-4.78a6.33,6.33,0,0,0-.85-1.81,21.41,21.41,0,0,1-3,1.62A9.18,9.18,0,0,1,194.35,57.57Z"/><path class="cls-20" d="M190,89.19H179.78l1.05-.78s3.26-1.12,3.9-1.25a32.49,32.49,0,0,1,3.81,0l.28.26.13.13A4.91,4.91,0,0,1,190,89.19Z"/><path class="cls-20" d="M190,89.19a4.38,4.38,0,0,0-.58-1c-.49,0-.94.13-.94.13h-2.4c-1,0-2.78.24-2.78.24l1.08-.78a6.26,6.26,0,0,0-1.38.34c-.58.23-1.09.37-1.53.57a16.41,16.41,0,0,1-1.63.51Z"/><path class="cls-15" d="M213.35,73.41c-.23,1.34-2.33,5.17-3.18,6.7s-6.91,10.07-6.91,10.07h-13a2.26,2.26,0,0,0-.21-1,4.91,4.91,0,0,0-1.09-1.6l-.13-.13-.28-.26s4.57-1,8.16-1.59a33.25,33.25,0,0,1,3.8-.53s5-12.92,5.83-13.82a5.66,5.66,0,0,1,2.12-1.65l.84,0c.17,0,2,.14,3.56,2.68A6.82,6.82,0,0,1,213.35,73.41Z"/><path class="cls-17" d="M204,141.18s.71,2.25.89,2.53a6.87,6.87,0,0,1-.18,2s-12.06.74-12.92.63l-.27-.57a6.43,6.43,0,0,1,.41-1.6c.27-.51,5.58-2.66,5.58-2.66Z"/><path class="cls-18" d="M197.53,141.56s-10.59-27.13-10.28-30.94c0,0,2.5-6.1,3.18-6.67s15.7-6.06,15.7-6.06l12.24.59s.47,7,.54,9.06-3.15,3.59-5.26,4.45-17.17,1-17.17,1L204,141.18S199.8,142,197.53,141.56Z"/><rect class="cls-19" x="179.78" y="89.19" width="14.94" height="0.99"/><polygon class="cls-19" points="176.46 75.38 155.08 75.38 158.67 90.19 180.05 90.19 176.46 75.38"/><rect class="cls-17" x="125.3" y="90.19" width="107.32" height="2.53"/><polygon class="cls-17" points="223.6 92.15 223.36 90.75 221.88 90.75 136.47 90.75 134.98 90.75 134.74 92.15 127.5 146.4 129.04 146.4 136.23 92.15 222.11 92.15 228.53 146.4 230.07 146.4 223.6 92.15"/><g class="cls-22"><g class="cls-23"><path class="cls-10" d="M166.66,84.46a2.43,2.43,0,0,1-1-1.42c-.22-.78.07-1.37.64-1.28a1,1,0,0,1,.4.14,2.46,2.46,0,0,1,1,1.42c.22.79-.07,1.36-.65,1.29a1,1,0,0,1-.39-.15m0-2.67a1.23,1.23,0,0,0-.44-.16c-.62-.08-.93.54-.69,1.4a2.65,2.65,0,0,0,1.13,1.54,1,1,0,0,0,.43.15c.62.09.93-.54.7-1.38a2.68,2.68,0,0,0-1.13-1.55"/><polyline class="cls-10" points="167.05 82.57 166.81 82.54 166.69 83.29 166.11 82.44 165.88 82.41 166.26 83.79 166.53 83.83 166.33 83.12 166.75 83.73 166.87 83.74 166.97 83.19 167.17 83.91 167.43 83.95 167.05 82.57"/></g></g></svg>