<svg id="Layer_1" data-name="Layer 1" xmlns="http://www.w3.org/2000/svg" xmlns:xlink="http://www.w3.org/1999/xlink" viewBox="0 0 295 150"><defs><style>.cls-1,.cls-3,.cls-8{fill:#dff2fe;}.cls-1{clip-rule:evenodd;}.cls-2{fill:#f9fcff;}.cls-3,.cls-9{fill-rule:evenodd;}.cls-4{clip-path:url(#clip-path);}.cls-5{fill:#f2faff;}.cls-6{fill:#b0d5f1;}.cls-7{clip-path:url(#clip-path-2);}.cls-13,.cls-9{fill:#2368a0;}.cls-10{fill:#ecac90;}.cls-11{fill:#f0bda6;}.cls-12{fill:#0d416b;}.cls-14{fill:#083564;}.cls-15{fill:#00aae7;}.cls-16{fill:#232527;}.cls-17{fill:#d0e6f7;}.cls-18{fill:#c0ddf4;}</style><clipPath id="clip-path"><path class="cls-1" d="M254.26,150c7.47-18.28,19-57,.65-92.86C248.67,44.93,239.49,27,221.72,21.91c-21.9-6.26-42.66,11.07-63.32-2-4.23-2.69-3.89-3.76-8.17-7.15-27.65-22-87.67-13.85-99.06,11.74-6,13.48,6.33,21,.51,42.38C46.62,85.47,35,88.41,31.25,102.59c-2.6,9.94-1.17,25,16.63,47.41Z"/></clipPath><clipPath id="clip-path-2"><circle class="cls-2" cx="100.41" cy="30.15" r="12.27" transform="translate(54.47 124.39) rotate(-80.72)"/></clipPath></defs><path class="cls-3" d="M254.26,150c7.47-18.28,19-57,.65-92.86C248.67,44.93,239.49,27,221.72,21.91c-21.9-6.26-42.66,11.07-63.32-2-4.23-2.69-3.89-3.76-8.17-7.15-27.65-22-87.67-13.85-99.06,11.74-6,13.48,6.33,21,.51,42.38C46.62,85.47,35,88.41,31.25,102.59c-2.6,9.94-1.17,25,16.63,47.41Z"/><g class="cls-4"><path class="cls-5" d="M180.38,24.32a9.13,9.13,0,0,0,.46-2.22l-1.53-.74q0-.37,0-.75l0-.26,1.44-.91a9.75,9.75,0,0,0-.7-2.16l-1.71.12a6.74,6.74,0,0,0-.55-.84l.79-1.51a9.77,9.77,0,0,0-1.69-1.52l-1.41,1a8.6,8.6,0,0,0-.91-.46l-.06-1.7a9.72,9.72,0,0,0-2.23-.47l-.74,1.54-.75,0-.26,0L169.56,12a9.28,9.28,0,0,0-2.16.71l.13,1.7a8.32,8.32,0,0,0-.85.56l-1.51-.8a9.73,9.73,0,0,0-1.51,1.7l1,1.41a7.56,7.56,0,0,0-.45.9l-1.71.07a9.13,9.13,0,0,0-.46,2.22l1.53.75q0,.36,0,.75l0,.26-1.44.91a9.67,9.67,0,0,0,.7,2.15l1.71-.12a6.86,6.86,0,0,0,.55.85l-.79,1.51A9.32,9.32,0,0,0,166,29.05l1.41-1a7,7,0,0,0,.91.46l.06,1.7a9.22,9.22,0,0,0,2.23.47l.74-1.54a6.27,6.27,0,0,0,.75,0,1.15,1.15,0,0,0,.26,0l.91,1.45a9.28,9.28,0,0,0,2.16-.71l-.13-1.7a8.24,8.24,0,0,0,.85-.55l1.51.79a9.32,9.32,0,0,0,1.51-1.69l-.95-1.42a9.51,9.51,0,0,0,.46-.9Zm-9,2.14a5.17,5.17,0,1,1,5.16-5.17A5.18,5.18,0,0,1,171.42,26.46Z"/><path class="cls-5" d="M184.33,32a3.51,3.51,0,0,0,.16-.73l-.51-.24a1,1,0,0,0,0-.24v-.09l.47-.3a3.38,3.38,0,0,0-.23-.7l-.56,0a1.67,1.67,0,0,0-.18-.28l.26-.49a3.64,3.64,0,0,0-.55-.49l-.47.31a1.59,1.59,0,0,0-.29-.15l0-.56a3.5,3.5,0,0,0-.73-.15l-.24.5h-.33l-.3-.47a3.38,3.38,0,0,0-.7.23l0,.56a1.67,1.67,0,0,0-.28.18l-.49-.26a2.84,2.84,0,0,0-.49.55l.31.46a2.1,2.1,0,0,0-.15.3l-.56,0a3,3,0,0,0-.15.73l.5.24c0,.08,0,.16,0,.24a.28.28,0,0,1,0,.09l-.47.3a3.38,3.38,0,0,0,.23.7l.56,0a1.67,1.67,0,0,0,.18.28l-.26.49a3.21,3.21,0,0,0,.55.49l.46-.31a2.1,2.1,0,0,0,.3.15l0,.56a3.41,3.41,0,0,0,.72.15l.25-.5h.33l.29.47a3.28,3.28,0,0,0,.71-.23l0-.56a1.59,1.59,0,0,0,.27-.18l.5.26a3.21,3.21,0,0,0,.49-.55l-.31-.46.15-.3Zm-2.92.7A1.69,1.69,0,1,1,183.09,31,1.69,1.69,0,0,1,181.41,32.72Z"/><rect class="cls-5" x="84.77" y="9.39" width="108.88" height="80.46"/><rect class="cls-6" x="131.09" y="27.06" width="57.77" height="1.19"/><rect class="cls-6" x="131.09" y="29.55" width="24.9" height="1.19"/><rect class="cls-6" x="156.51" y="29.55" width="21.92" height="1.19"/><rect class="cls-6" x="179.29" y="29.55" width="9.58" height="1.19"/><rect class="cls-6" x="131.12" y="32.05" width="14.18" height="1.19"/><polygon class="cls-6" points="126.05 28.8 125.4 28.16 122.67 30.86 121.59 29.8 120.94 30.43 122.67 32.14 123.32 31.5 123.32 31.5 126.05 28.8"/><path class="cls-6" d="M126.55,27.09V33.2h-6.11V27.09h6.11M128,25.67h-9v9h9v-9Z"/><rect class="cls-6" x="131.09" y="40.03" width="57.77" height="1.19"/><rect class="cls-6" x="131.09" y="42.53" width="24.9" height="1.19"/><rect class="cls-6" x="156.51" y="42.53" width="21.92" height="1.19"/><rect class="cls-6" x="179.29" y="42.53" width="9.58" height="1.19"/><rect class="cls-6" x="131.12" y="45.02" width="14.18" height="1.19"/><path class="cls-6" d="M126.55,40.07v6.11h-6.11V40.07h6.11M128,38.64h-9v9h9v-9Z"/><rect class="cls-6" x="131.09" y="65.99" width="57.77" height="1.19"/><rect class="cls-6" x="131.09" y="68.48" width="24.9" height="1.19"/><rect class="cls-6" x="156.51" y="68.48" width="21.92" height="1.19"/><rect class="cls-6" x="179.29" y="68.48" width="9.58" height="1.19"/><rect class="cls-6" x="131.12" y="70.97" width="14.18" height="1.19"/><path class="cls-6" d="M126.55,66v6.11h-6.11V66h6.11M128,64.59h-9v9h9v-9Z"/><rect class="cls-6" x="131.09" y="53.01" width="57.77" height="1.19"/><rect class="cls-6" x="131.09" y="55.5" width="24.9" height="1.19"/><rect class="cls-6" x="156.51" y="55.5" width="21.92" height="1.19"/><rect class="cls-6" x="179.29" y="55.5" width="9.58" height="1.19"/><rect class="cls-6" x="131.12" y="58" width="14.18" height="1.19"/><path class="cls-6" d="M126.55,53v6.11h-6.11V53h6.11M128,51.62h-9v9h9v-9Z"/><rect class="cls-6" x="131.09" y="78.96" width="57.77" height="1.19"/><rect class="cls-6" x="131.09" y="81.46" width="24.9" height="1.19"/><rect class="cls-6" x="156.51" y="81.46" width="21.92" height="1.19"/><rect class="cls-6" x="179.29" y="81.46" width="9.58" height="1.19"/><rect class="cls-6" x="131.12" y="83.95" width="14.18" height="1.19"/><path class="cls-6" d="M126.55,79V85.1h-6.11V79h6.11M128,77.57h-9v9h9v-9Z"/><circle class="cls-2" cx="100.41" cy="30.15" r="12.27" transform="translate(54.47 124.39) rotate(-80.72)"/><g class="cls-7"><rect class="cls-8" x="98.62" y="34.32" width="3.59" height="5.32"/><path class="cls-8" d="M100.41,23.06c-1.74,0-4.49,1-4.49,5.63A9.93,9.93,0,0,0,96.19,31a5.43,5.43,0,0,0,3.55,3.92h0a2.14,2.14,0,0,0,1.15,0l.18-.05A5.44,5.44,0,0,0,104.64,31a9.93,9.93,0,0,0,.27-2.26C104.91,24.05,102.15,23.06,100.41,23.06Z"/><path class="cls-8" d="M105.11,28.6c.37.08.57.58.45,1.12s-.49.93-.85.86-.57-.58-.45-1.13S104.75,28.53,105.11,28.6Z"/><path class="cls-8" d="M95.71,28.6c-.36.08-.56.58-.45,1.12s.5.93.86.86.56-.58.45-1.13S96.07,28.53,95.71,28.6Z"/><path class="cls-6" d="M103.2,36.37c-.56-.24-1-.39-1-.39a2.31,2.31,0,0,1-3.59,0s-.43.15-1,.4a5,5,0,0,0-3,4c-.17,1.46-.23,2.87-.23,2.87h12.09s-.06-1.38-.23-2.82A5.09,5.09,0,0,0,103.2,36.37Z"/><path class="cls-6" d="M95.91,28.6a3.22,3.22,0,0,1,2.71-1.13c4.55.43,1.93-2.6,4.31-1.88,1.45.43.64,1.79,1.81,2.93l.17.08.16-.66a4.7,4.7,0,0,0-6.93-5h0a4.67,4.67,0,0,0-2.34,4.51Z"/></g><rect class="cls-6" x="84.77" y="9.39" width="108.88" height="5.77"/><rect class="cls-8" x="87.13" y="10.6" width="61.6" height="3.36" rx="1.68"/><circle class="cls-8" cx="178.77" cy="12.28" r="1.41"/><circle class="cls-8" cx="183.64" cy="12.28" r="1.41"/><circle class="cls-8" cx="188.51" cy="12.28" r="1.41"/><rect class="cls-6" x="87.89" y="46.15" width="25.05" height="40.38" rx="1.31"/><rect class="cls-5" x="225.2" y="30.99" width="24.9" height="33.28"/><rect class="cls-6" x="225.2" y="47.65" width="24.89" height="1.37"/><rect class="cls-6" x="236.97" y="30.99" width="1.36" height="33.26"/><path class="cls-8" d="M235.16,39h-8.73s.64-2.63,2.9-2.63a3.28,3.28,0,0,1,2.87,1.61,2.21,2.21,0,0,1,3,1"/><path class="cls-8" d="M231.13,40.69a1.08,1.08,0,0,1,.53.15,1.68,1.68,0,0,1,1.47-.87,1.71,1.71,0,0,1,1.42.76,1.32,1.32,0,0,1,2.58.24l.17,0a1.07,1.07,0,0,1,.95.59h-8.17A1.09,1.09,0,0,1,231.13,40.69Z"/></g><path class="cls-9" d="M258,150H37.84a1.81,1.81,0,0,1-1.8-1.8h0a1.81,1.81,0,0,1,1.8-1.8H258a1.81,1.81,0,0,1,1.8,1.8h0A1.81,1.81,0,0,1,258,150Z"/><polygon class="cls-6" points="240.97 146.38 190.03 146.38 190.22 111.6 241.15 111.6 240.97 146.38"/><polygon class="cls-8" points="237.49 144.34 193.1 144.34 193.25 114.13 237.65 114.13 237.49 144.34"/><rect class="cls-6" x="191.85" y="129.37" width="47.9" height="2.23"/><path class="cls-6" d="M213,121.78a2.5,2.5,0,1,1,2.46,2A2.28,2.28,0,0,1,213,121.78Z"/><rect class="cls-6" x="191.85" y="144.17" width="47.9" height="2.23"/><path class="cls-6" d="M213,137.93a2.5,2.5,0,1,1,2.46,2A2.28,2.28,0,0,1,213,137.93Z"/><path class="cls-10" d="M70.51,84.9A3.72,3.72,0,0,1,71,86.24a8.79,8.79,0,0,0,.62,1.56,8.5,8.5,0,0,1,.74,2.54c0,.36-.37,1.29-.31,1.67s.3,1,0,1.16-.54-.34-.73-.51a.47.47,0,0,1-.24.46.92.92,0,0,1-.85,0,.85.85,0,0,1-.44.42,1.08,1.08,0,0,1-.85-.1,1,1,0,0,1-.64.21.88.88,0,0,1-.71-.42c-.28-.08-.61.22-.81-.2s-.11-.13-.25-1a11,11,0,0,1,.74-4.25A3.87,3.87,0,0,0,67,84.42C68.19,84.57,69.36,84.75,70.51,84.9Z"/><path class="cls-11" d="M71.39,92.42a4.21,4.21,0,0,0-.52-2.54c-.45-.48-.56,0-.65.25,0-.37-.12-.78-.56-.84s-.63.41-.63.79a.61.61,0,0,0-.77-.44.69.69,0,0,0-.48.86c-.31-.37-.75-.43-1,0a3.15,3.15,0,0,0,0,2.55c.28.57.52.11.84.24.32.53.84.47,1.35.21a.89.89,0,0,0,1.29-.32C70.89,93.43,71.24,93.08,71.39,92.42Z"/><path class="cls-12" d="M77.38,54.32c-1.27,4.25-3.14,10.38-4.77,16.95-.51,2.06-.49,12-1.27,14.48s-3.56,1-4.78,1.7c.14-5,.17-13,.44-17.36s4.72-19.48,6.42-21c1.27-1.13,2.38-.26,3.1,1C77.54,51.86,78.65,50.08,77.38,54.32Z"/><path class="cls-12" d="M114.87,43.11l-.5-.52c2.65-2.26,4.79-5.11,7.28-7.54l.56.49C119.69,38,117.53,40.81,114.87,43.11Z"/><path class="cls-10" d="M123.67,37.71a1.71,1.71,0,0,1-.09.7,7,7,0,0,0-.35.67,2.55,2.55,0,0,0-.1.25,4.76,4.76,0,0,1-.52,1.42c-.39.65-1.15,1.82-1.61,2.55-.52-.24-1-.71-1.52-.94A13.67,13.67,0,0,0,118,42a24.09,24.09,0,0,1,.19-4.17c0-.13,0-.11.07-.15a8.52,8.52,0,0,1,.77-.86c.11-.15.65-.72.92-.72a.89.89,0,0,1,.79.33,2.22,2.22,0,0,1,1.12.33,1.33,1.33,0,0,1,1,.52A1,1,0,0,1,123.67,37.71Z"/><path class="cls-13" d="M74.48,137.92c-.36.77.11,2-.46,2.64s-2.83-.09-3.65-.11c-.16-.95-.23-1.86-.36-2.8A14.91,14.91,0,0,1,74.48,137.92Z"/><path class="cls-14" d="M74.16,140.3a10,10,0,0,0,2.42,2c1.22.77,2.1.05,3.73,1.66,1.17,1.16-1.64,2.53-3.15,2.2s-6.59.91-7.46-.51.48-3.95.6-5.49A11.15,11.15,0,0,0,74.16,140.3Z"/><path class="cls-13" d="M101.08,137.92c-.38.78.07,2-.49,2.63s-2.81-.09-3.63-.11c-.14-.95-.22-1.86-.34-2.8A15.52,15.52,0,0,1,101.08,137.92Z"/><path class="cls-14" d="M100.71,140.29a9.27,9.27,0,0,0,2.46,2.08c1.46.88,4.11.12,5.87,1.89,1.27,1.27-4.34,2.41-5.54,2-.85-.33-6.65.85-7.28-.53s.4-4,.69-5.48A9.74,9.74,0,0,0,100.71,140.29Z"/><path class="cls-15" d="M77.47,77.42c-2.06,4.12-3.4,6.16-3.38,11s-1.27,10-1.92,15.74c-.74,6.36-2.74,16.17-2.86,22.18s.35,8.29.52,13.67c1.65-.34,3.17.13,4.86-.19,1-7.45,2.06-19.72,4.55-26.26S85.1,97.19,85.55,91.8,79.15,81.81,77.47,77.42Z"/><path class="cls-15" d="M95.63,78.48c1,5.89,2.19,10.82,2.85,16.92s.15,9.79.86,17.22,1.13,19.06,2.36,27.13a36.5,36.5,0,0,1-6.1.21c-2.22-7.63-4.81-16.87-5-24.72s-3-15.77-6-22.58S77,86.09,75.67,77.32C79.52,77,93.29,75.61,95.63,78.48Z"/><path class="cls-10" d="M83.39,31.32c2.75-1,5-.54,6.77,1.77s2.67,10-.13,11.33a5.65,5.65,0,0,1-7.13-1.65,14.15,14.15,0,0,1-2.35-7.38C80.48,33.11,81.9,32.44,83.39,31.32Z"/><path class="cls-10" d="M89.45,44.73c-.35.65.29,1.19,0,1.87s-5,.65-6,.64C83.21,45,82.47,43.3,82,41S88.66,44,89.45,44.73Z"/><path class="cls-16" d="M81.92,41.08a2.46,2.46,0,0,0,2.4.37c1.16-.23,3.58-2.29,4.46-2.8s.57-.21.92-.8a6.28,6.28,0,0,0,.45.69c.25.05.58,0,.77.1.15-1.89-1-1.06.56-3.37s-4-5.8-7.19-4.44c-1.73.52-4.05,1.5-4.12,3.71A13,13,0,0,0,81.92,41.08Z"/><path class="cls-13" d="M90,46.51c-.49-.51.51-1-.8-1.29a24.25,24.25,0,0,0-6.42-.35,12.47,12.47,0,0,0,0,1.37C84.8,47.2,87.8,46.64,90,46.51Z"/><path class="cls-10" d="M89.5,36.85c-.09-.35-1.24-1.26-1.53-.27s.22,2.94,1.16,2.79S89.71,37.72,89.5,36.85Z"/><path class="cls-12" d="M99,48.74c-3-.5-6.15-1.85-9-2.11a29.27,29.27,0,0,0-7.37-.25,23.65,23.65,0,0,0-9.24,2.92c-.28.17-.36,6.11-.79,6.84.63,3.12,1.53,1.31,2.14,5a87.38,87.38,0,0,1,1.31,13.14c.08,2.68-1.83,12.59-2.71,16.29,2.21.47,5.47,2.16,7.64,1.57s16.34,2.33,17-1.45-1.79-17-2.07-21c-.41-6.16.35-6.52.55-11.35,5.74-3.53,8.08-.4,12.51-2,1.19-.42,5.13-1.83,6.1-2.64a23.14,23.14,0,0,0,7-10.67c-.79-.14-2.58-2.6-4.3-1.45s-2.31,5.93-5.74,7.63c-1.53.76-2.34,1.83-4.52,1.53S101.58,49.14,99,48.74Z"/><path class="cls-16" d="M82.06,31.76c-5.14.64-1.5,7.08-.11,9.32C82,38,82,34.87,82.06,31.76Z"/><path class="cls-13" d="M122.21,35.54c.12-.28.23-.56.35-.83l-.91.34Z"/><path class="cls-6" d="M171.15,137.23s-6.86-11.32-4.85-23.34C166.3,113.89,173.1,124.41,171.15,137.23Z"/><path class="cls-6" d="M172.08,137.23s6.86-11.32,4.85-23.34C176.93,113.89,170.13,124.41,172.08,137.23Z"/><path class="cls-17" d="M170.24,136.7s-6.57-3.68-6.74-16.83C163.5,119.87,172.73,129.4,170.24,136.7Z"/><path class="cls-17" d="M173,136.7s6.57-3.68,6.73-16.83C179.72,119.87,170.5,129.4,173,136.7Z"/><path class="cls-18" d="M171.42,137.88s-5-14.6.33-27.76C171.75,110.12,176.84,123.78,171.42,137.88Z"/><path class="cls-6" d="M173.71,146.36h-4.19a3.28,3.28,0,0,1-3.25-2.8l-1.47-10.09h13.63L177,143.56A3.28,3.28,0,0,1,173.71,146.36Z"/><path class="cls-6" d="M164.86,133.85l1.41,9.71a3.28,3.28,0,0,0,3.25,2.8h4.19a3.28,3.28,0,0,0,3.25-2.8L177,143a14.29,14.29,0,0,1-4-1C169.08,140.45,166.87,137.32,164.86,133.85Z"/></svg>