<?xml version="1.0" encoding="utf-8"?>
<!-- Generator: Adobe Illustrator 22.1.0, SVG Export Plug-In . SVG Version: 6.00 Build 0)  -->
<svg version="1.1" id="Layer_1" xmlns="http://www.w3.org/2000/svg" xmlns:xlink="http://www.w3.org/1999/xlink" x="0px" y="0px"
	 viewBox="0 0 259 258" style="enable-background:new 0 0 259 258;" xml:space="preserve">
<style type="text/css">
	.st0{fill:#0333A5;}
	.st1{fill:#FFFFFF;}
</style>
<path class="st0" d="M182.2,247.8H76.7c-36.4,0-66.1-29.8-66.1-66.1V76.2c0-36.4,29.8-66.1,66.1-66.1h105.5
	c36.4,0,66.1,29.8,66.1,66.1v105.5C248.3,218.1,218.6,247.8,182.2,247.8z"/>
<path class="st1" d="M197.2,65.6c-9.7,0-19.4,0-29.1,0c-1.9,0-3.3,0.7-4.5,2.2c-10.7,13.1-21.6,26.2-32.2,39.4
	c-1.7,2.2-2.5,2.1-4.2,0C116.7,94,105.9,81,95.3,67.9c-1.4-1.7-2.8-2.4-5-2.3c-9.3,0.1-18.6,0-27.9,0c-4.5,0-5.8,1.4-5.8,5.9
	c0,38.3,0,76.5,0,114.8c0,4.6,1.3,5.9,5.8,5.9c9.6,0,19.2,0,28.8,0c4.6,0,5.9-1.3,5.9-5.8c0-18.4,0-36.8,0-55.2c0-1-0.3-2.1,0.3-3.2
	c1,0.4,1.4,1.3,2,2c8.2,10,16.4,20.1,24.7,30.1c3.1,3.7,6.3,3.6,9.4,0c3.2-3.8,6.3-7.6,9.4-11.5c5.6-6.9,11.3-13.8,16.9-20.6
	l0.7,0.2c0,1,0,2.1,0,3.1c0,18.5,0,37,0,55.5c0,4,1.5,5.4,5.4,5.5c10.4,0,20.7,0,31.1,0c3.6,0,5.1-1.6,5.1-5.2
	c0-38.8,0-77.5,0-116.3C202.3,67.3,200.8,65.7,197.2,65.6z"/>
</svg>
