<?xml version="1.0" encoding="utf-8"?>
<!-- Generator: Adobe Illustrator 22.1.0, SVG Export Plug-In . SVG Version: 6.00 Build 0)  -->
<svg version="1.1" id="Layer_1" xmlns="http://www.w3.org/2000/svg" xmlns:xlink="http://www.w3.org/1999/xlink" x="0px" y="0px"
	 viewBox="0 0 145.7 41.3" style="enable-background:new 0 0 145.7 41.3;" xml:space="preserve">
<style type="text/css">
	.st0{fill:#00AAE6;}
	.st1{fill:#232527;}
</style>
<g>
	<g>
		<polygon class="st0" points="107.2,37.6 110.4,37.6 110.4,36 107.2,36 107.2,34.6 110.6,34.6 110.6,33.1 104.9,33.1 104.9,40.7 
			110.7,40.7 110.7,39.2 107.2,39.2 		"/>
		<polygon class="st0" points="66.3,37.6 69.4,37.6 69.4,36 66.3,36 66.3,34.6 69.6,34.6 69.6,33.1 64,33.1 64,40.7 69.7,40.7 
			69.7,39.2 66.3,39.2 		"/>
		<polygon class="st0" points="84.6,35.5 82.9,33.1 80.5,33.1 83.5,37.3 83.5,40.7 85.8,40.7 85.8,37.2 88.8,33.1 86.4,33.1 		"/>
		<path class="st0" d="M78.7,36.7c-0.4-0.2-0.8-0.5-1.4-0.7c-0.3-0.2-0.6-0.3-0.7-0.4c-0.1-0.1-0.2-0.2-0.2-0.4
			c0-0.2,0.1-0.3,0.2-0.4c0.1-0.1,0.3-0.2,0.6-0.2c0.4,0,0.8,0.1,1.2,0.3c0.4,0.2,0.7,0.4,1,0.6v-1.8c-0.1-0.1-0.2-0.1-0.5-0.2
			c-0.2-0.1-0.5-0.2-0.9-0.3C77.8,33.1,77.4,33,77,33c-0.6,0-1.1,0.1-1.5,0.3c-0.4,0.2-0.7,0.5-0.9,0.8c-0.2,0.3-0.3,0.7-0.3,1.1
			c0,0.4,0.1,0.8,0.3,1.1c0.2,0.3,0.5,0.6,0.8,0.8c0.3,0.2,0.7,0.4,1.1,0.6c0.4,0.1,0.7,0.3,0.9,0.4c0.2,0.1,0.3,0.3,0.3,0.5
			c0,0.1-0.1,0.2-0.2,0.4c-0.1,0.1-0.4,0.2-0.8,0.2c-0.4,0-0.8-0.1-1.2-0.2c-0.4-0.2-0.7-0.4-1.1-0.6v1.9c0.4,0.2,0.8,0.3,1.2,0.4
			c0.4,0.1,0.7,0.1,0.9,0.2c0.2,0,0.4,0,0.6,0c0.6,0,1.1-0.1,1.5-0.3c0.4-0.2,0.8-0.4,1-0.8c0.2-0.3,0.4-0.8,0.4-1.2
			c0-0.4-0.1-0.8-0.3-1.1C79.4,37.1,79.1,36.9,78.7,36.7z"/>
		<path class="st0" d="M93.7,36.7c-0.3-0.2-0.8-0.5-1.4-0.7c-0.3-0.2-0.6-0.3-0.7-0.4c-0.1-0.1-0.2-0.2-0.2-0.4
			c0-0.2,0.1-0.3,0.2-0.4c0.1-0.1,0.3-0.2,0.6-0.2c0.4,0,0.8,0.1,1.2,0.3c0.4,0.2,0.7,0.4,1,0.6v-1.8c-0.1-0.1-0.2-0.1-0.5-0.2
			c-0.2-0.1-0.5-0.2-0.9-0.3c-0.4-0.1-0.7-0.1-1.2-0.1c-0.6,0-1.1,0.1-1.5,0.3c-0.4,0.2-0.7,0.5-0.9,0.8c-0.2,0.3-0.3,0.7-0.3,1.1
			c0,0.4,0.1,0.8,0.3,1.1c0.2,0.3,0.5,0.6,0.8,0.8c0.3,0.2,0.7,0.4,1.1,0.6c0.4,0.1,0.7,0.3,0.9,0.4c0.2,0.1,0.3,0.3,0.3,0.5
			c0,0.1-0.1,0.2-0.2,0.4c-0.1,0.1-0.4,0.2-0.8,0.2c-0.4,0-0.8-0.1-1.2-0.2c-0.4-0.2-0.7-0.4-1.1-0.6v1.9c0.4,0.2,0.8,0.3,1.2,0.4
			c0.4,0.1,0.7,0.1,0.9,0.2c0.2,0,0.4,0,0.6,0c0.6,0,1.1-0.1,1.5-0.3c0.4-0.2,0.8-0.4,1-0.8c0.2-0.3,0.4-0.8,0.4-1.2
			c0-0.4-0.1-0.8-0.3-1.1C94.3,37.1,94,36.9,93.7,36.7z"/>
		<path class="st0" d="M127.9,37.4c-0.2-0.3-0.5-0.5-0.8-0.8c-0.4-0.2-0.8-0.5-1.4-0.7c-0.3-0.2-0.6-0.3-0.7-0.4
			c-0.1-0.1-0.2-0.2-0.2-0.4c0-0.2,0.1-0.3,0.2-0.4c0.1-0.1,0.3-0.2,0.6-0.2c0.4,0,0.8,0.1,1.2,0.3c0.4,0.2,0.7,0.4,1,0.6v-1.8
			c-0.1-0.1-0.2-0.1-0.5-0.2c-0.2-0.1-0.5-0.2-0.9-0.3c-0.4-0.1-0.7-0.1-1.2-0.1c-0.6,0-1.1,0.1-1.5,0.3c-0.4,0.2-0.7,0.5-0.9,0.8
			c-0.2,0.3-0.3,0.7-0.3,1.1c0,0.4,0.1,0.8,0.3,1.1c0.2,0.3,0.5,0.6,0.8,0.8c0.3,0.2,0.7,0.4,1.1,0.6c0.4,0.1,0.7,0.3,0.9,0.4
			c0.2,0.1,0.3,0.3,0.3,0.5c0,0.1-0.1,0.2-0.2,0.4c-0.1,0.1-0.4,0.2-0.8,0.2c-0.4,0-0.8-0.1-1.2-0.2c-0.4-0.2-0.7-0.4-1.1-0.6v1.9
			c0.4,0.2,0.8,0.3,1.2,0.4c0.4,0.1,0.7,0.1,0.9,0.2c0.2,0,0.4,0,0.6,0c0.6,0,1.1-0.1,1.5-0.3c0.4-0.2,0.8-0.4,1-0.8
			c0.2-0.3,0.4-0.8,0.4-1.2C128.2,38.1,128.1,37.7,127.9,37.4z"/>
		<path class="st0" d="M5.8,36.7c-0.3-0.2-0.8-0.5-1.4-0.7c-0.3-0.2-0.6-0.3-0.7-0.4c-0.1-0.1-0.2-0.2-0.2-0.4
			c0-0.2,0.1-0.3,0.2-0.4c0.1-0.1,0.3-0.2,0.6-0.2c0.4,0,0.8,0.1,1.2,0.3c0.4,0.2,0.7,0.4,1,0.6v-1.8c-0.1-0.1-0.2-0.1-0.5-0.2
			c-0.2-0.1-0.5-0.2-0.9-0.3C4.9,33.1,4.5,33,4.1,33c-0.6,0-1.1,0.1-1.5,0.3c-0.4,0.2-0.7,0.5-0.9,0.8c-0.2,0.3-0.3,0.7-0.3,1.1
			c0,0.4,0.1,0.8,0.3,1.1c0.2,0.3,0.5,0.6,0.8,0.8c0.3,0.2,0.7,0.4,1.1,0.6c0.4,0.1,0.7,0.3,0.9,0.4c0.2,0.1,0.3,0.3,0.3,0.5
			c0,0.1-0.1,0.2-0.2,0.4c-0.1,0.1-0.4,0.2-0.8,0.2c-0.4,0-0.8-0.1-1.2-0.2c-0.4-0.2-0.7-0.4-1.1-0.6v1.9c0.4,0.2,0.8,0.3,1.2,0.4
			c0.4,0.1,0.7,0.1,0.9,0.2c0.2,0,0.4,0,0.6,0c0.6,0,1.1-0.1,1.5-0.3c0.4-0.2,0.8-0.4,1-0.8c0.2-0.3,0.4-0.8,0.4-1.2
			c0-0.4-0.1-0.8-0.3-1.1C6.4,37.1,6.2,36.9,5.8,36.7z"/>
		<polygon class="st0" points="95.8,35 98.5,35 98.5,40.7 100.8,40.7 100.8,35 103.6,35 103.6,33.1 95.8,33.1 		"/>
		<polygon class="st0" points="116.6,36 114.3,33.1 112.2,33.1 112.2,40.7 114.4,40.7 114.4,36.3 116.5,38.9 116.7,38.9 118.7,36.3 
			118.7,40.7 121,40.7 121,33.1 118.9,33.1 		"/>
		<polygon class="st0" points="24.4,35 27.2,35 27.2,40.7 29.5,40.7 29.5,35 32.3,35 32.3,33.1 24.4,33.1 		"/>
		<polygon class="st0" points="18,40.7 20.3,40.7 20.3,37.6 23.5,37.6 23.5,36.1 20.3,36.1 20.3,34.6 23.5,34.6 23.5,33.1 18,33.1 
					"/>
		<path class="st0" d="M15.5,34.2c-0.4-0.4-0.8-0.6-1.4-0.8C13.6,33.1,13,33,12.3,33c-0.9,0-1.7,0.2-2.4,0.5
			c-0.7,0.4-1.1,0.8-1.4,1.4C8.2,35.6,8,36.2,8,36.9c0,0.7,0.2,1.3,0.5,1.9c0.3,0.6,0.8,1.1,1.4,1.4c0.6,0.4,1.4,0.5,2.4,0.5
			c0.9,0,1.7-0.2,2.4-0.5c0.6-0.3,1.1-0.8,1.5-1.4c0.3-0.6,0.5-1.2,0.5-2c0-0.5-0.1-1-0.3-1.5C16.1,34.9,15.9,34.5,15.5,34.2z
			 M14,37.9c-0.2,0.3-0.4,0.5-0.7,0.7c-0.3,0.2-0.7,0.2-1.1,0.2c-0.6,0-1.1-0.2-1.4-0.5c-0.4-0.4-0.5-0.8-0.5-1.4
			c0-0.6,0.2-1,0.5-1.4c0.4-0.4,0.8-0.5,1.4-0.5c0.3,0,0.6,0,0.8,0.1c0.2,0.1,0.5,0.2,0.6,0.4c0.2,0.2,0.3,0.4,0.4,0.6
			c0.1,0.2,0.1,0.5,0.1,0.8C14.3,37.3,14.2,37.6,14,37.9z"/>
		<polygon class="st0" points="43.5,33.1 41.9,37.3 40.1,33.1 38.5,33.1 36.7,37.3 35.1,33.1 32.7,33.1 35.9,40.8 37.3,40.8 
			39.3,36.3 41.3,40.8 42.6,40.8 45.9,33.1 		"/>
		<path class="st0" d="M48.7,33.1l-3.4,7.6h2.3l0.6-1.5h3.3l0.6,1.5h2.3l-3.3-7.6H48.7z M48.9,37.9l1.1-2.8l1.1,2.8H48.9z"/>
		<path class="st0" d="M61.5,37.9c-0.2-0.2-0.4-0.4-0.6-0.5c0.2-0.1,0.4-0.2,0.6-0.3c0.2-0.1,0.3-0.3,0.5-0.6c0.1-0.3,0.2-0.6,0.2-1
			c0-0.3-0.1-0.7-0.3-1c-0.2-0.4-0.5-0.7-0.9-0.9c-0.4-0.3-0.9-0.4-1.5-0.4h-3.9v7.6h2.3v-3h0.3c0.3,0,0.5,0,0.6,0.1
			c0.2,0.1,0.3,0.2,0.5,0.4c0.2,0.2,0.4,0.6,0.6,1.1l0.6,1.3h2.5l-0.8-1.6C61.9,38.5,61.7,38.1,61.5,37.9z M59.5,36.2
			c-0.2,0.1-0.6,0.2-1.1,0.2h-0.5v-1.8h0.5c0.5,0,0.9,0.1,1.1,0.2c0.2,0.1,0.3,0.4,0.3,0.7C59.8,35.9,59.7,36.1,59.5,36.2z"/>
	</g>
	<g>
		<path class="st1" d="M24.1,9.7c-1.6,0-3.1,0-4.7,0c-0.3,0-0.5,0.1-0.7,0.4c-1.7,2.1-3.5,4.2-5.2,6.3c-0.3,0.3-0.4,0.3-0.7,0
			c-1.7-2.1-3.4-4.2-5.1-6.3C7.5,9.8,7.3,9.7,6.9,9.7c-1.5,0-3,0-4.5,0c-0.7,0-0.9,0.2-0.9,1c0,6.1,0,12.3,0,18.4c0,0.7,0.2,1,0.9,1
			c1.5,0,3.1,0,4.6,0c0.7,0,1-0.2,1-0.9c0-3,0-5.9,0-8.9c0-0.2,0-0.3,0.1-0.5c0.2,0.1,0.2,0.2,0.3,0.3c1.3,1.6,2.6,3.2,4,4.8
			c0.5,0.6,1,0.6,1.5,0c0.5-0.6,1-1.2,1.5-1.8c0.9-1.1,1.8-2.2,2.7-3.3l0.1,0c0,0.2,0,0.3,0,0.5c0,3,0,5.9,0,8.9
			c0,0.6,0.2,0.9,0.9,0.9c1.7,0,3.3,0,5,0c0.6,0,0.8-0.3,0.8-0.8c0-6.2,0-12.4,0-18.7C24.9,10,24.6,9.7,24.1,9.7z"/>
		<path class="st1" d="M58,23.2c-0.4-0.7-0.8-1.3-1.4-1.8c-0.3-0.3-0.2-0.4,0.1-0.6c1.1-0.7,1.8-1.6,2.1-2.8c1-3.3-1-7.1-4.8-8
			c-0.9-0.2-1.8-0.2-2.7-0.3c-3,0-5.9,0-8.9,0c-0.8,0-1,0.2-1,1c0,3.1,0,6.1,0,9.2c0,3.1,0,6.2,0,9.2c0,0.7,0.2,0.9,0.9,0.9
			c1.6,0,3.3,0,4.9,0c0.6,0,0.9-0.2,0.9-0.9c0-1,0-2,0-3c0-1.1,0-2.1,0-3.2c0-0.2,0-0.5,0.3-0.5c0.9,0,1.7,0.1,2.3,0.9
			c0.6,0.7,1,1.5,1.4,2.3c0.6,1.3,1.2,2.7,1.8,4c0.1,0.2,0.2,0.4,0.5,0.4c2,0,3.9,0,5.9,0c0.5,0,0.8-0.5,0.6-0.9
			C59.9,27.2,59,25.2,58,23.2z M51.8,17.5c-0.3,0.3-0.6,0.4-1,0.5c-0.8,0.2-1.6,0.1-2.4,0.1c-0.3,0-0.4-0.1-0.4-0.4c0-0.5,0-1,0-1.5
			c0-0.5,0-1,0-1.4c0-0.2,0.1-0.4,0.4-0.4c0.8,0,1.7,0,2.5,0.2C52.1,14.9,52.6,16.5,51.8,17.5z"/>
		<path class="st1" d="M82.9,23.2c-1.9-4.3-3.8-8.6-5.7-12.9c-0.2-0.4-0.4-0.6-0.8-0.6c-1.9,0-3.9,0-5.8,0c-0.4,0-0.6,0.1-0.8,0.5
			c-0.8,1.9-1.7,3.8-2.5,5.7c-1.9,4.4-3.8,8.7-5.8,13c-0.3,0.7,0,1.1,0.7,1.1c1.8,0,3.5,0,5.3,0c0.4,0,0.6-0.1,0.7-0.5
			c0.4-1,0.8-2,1.2-3c0.1-0.3,0.3-0.5,0.7-0.5c1.1,0,2.3,0,3.4,0c1.2,0,2.3,0,3.5,0c0.4,0,0.6,0.1,0.7,0.5c0.4,1,0.8,2,1.2,3
			c0.1,0.3,0.3,0.4,0.6,0.4c1.8,0,3.6,0,5.4,0c0.7,0,0.9-0.4,0.7-1C84.6,27.1,83.8,25.1,82.9,23.2z M74.7,21.9c-1,0-1.9,0-2.9,0
			c-0.4,0-0.4-0.1-0.3-0.5c0.6-1.6,1.3-3.1,1.9-4.7c0-0.1,0.1-0.1,0.1-0.2c0.6,1.6,1.2,3,1.8,4.5C75.7,21.9,75.7,21.9,74.7,21.9z"/>
		<path class="st1" d="M143.3,25.2c-2.4,0-4.8,0-7.1,0c-0.5,0-0.6-0.1-0.6-0.6c0-0.7,0-1.3,0-2c0-0.6,0-0.6,0.7-0.6
			c2.2,0,4.4,0,6.6,0c0.7,0,0.9-0.2,0.9-0.9c0-0.9,0-1.9,0-2.8c0-1-0.1-1.1-1.1-1.1c-2.1,0-4.2,0-6.3,0c-0.7,0-0.7,0-0.7-0.6
			c0-0.4,0-0.7,0-1.1c0-0.9-0.1-0.9,0.8-0.9c2.2,0,4.5,0,6.7,0c0.7,0,1-0.3,1-1c0-1,0-1.9,0-2.9c0-0.7-0.3-1-1-1
			c-4.4,0-8.9,0-13.3,0c-0.8,0-1,0.2-1,1c0,3.1,0,6.1,0,9.2c0,3.1,0,6.2,0,9.3c0,0.6,0.2,0.9,0.8,0.9c4.6,0,9.2,0,13.8,0
			c0.6,0,0.8-0.3,0.8-0.8c0-1,0-2,0-2.9C144.3,25.4,144.2,25.2,143.3,25.2z"/>
		<path class="st1" d="M106,23.7c0-0.7-0.5-1-1.1-0.6c-1.2,0.7-2.5,1.3-3.9,1.6c-1.5,0.3-2.9,0.4-4.4-0.2c-1.9-0.7-3.2-2.1-3.3-4.2
			c-0.2-2.1,0.9-3.8,2.9-4.7c1.9-0.9,3.8-0.9,5.7-0.3c1.1,0.3,2,0.9,3,1.4c0.5,0.3,1,0,1-0.6c0-0.8,0-1.6,0-2.3c0-0.7,0-1.4,0-2.1
			c0-0.5-0.2-0.7-0.6-0.8c-0.7-0.2-1.4-0.5-2.1-0.6c-3.1-0.8-6.3-1.1-9.5-0.1c-3,0.9-5.3,2.7-6.5,5.7c-0.7,1.7-0.8,3.5-0.6,5.4
			c0.4,3.8,2.4,6.5,5.9,8.1c1.7,0.8,3.4,1,5.3,1c2.7,0,5.4-0.4,7.8-1.6c0.4-0.2,0.5-0.4,0.5-0.8C106,26.5,106,25.1,106,23.7z"/>
		<path class="st1" d="M124.5,24.5c-2.4,0-4.7,0-7.1,0c-0.7,0-0.7,0-0.8-0.7c0-4.4,0-8.7,0-13.1c0-0.7-0.2-0.9-0.9-0.9
			c-1.6,0-3.2,0-4.9,0c-0.7,0-0.9,0.2-0.9,1c0,3.1,0,6.1,0,9.2c0,3.1,0,6.2,0,9.3c0,0.6,0.2,0.9,0.8,0.9c4.6,0,9.2,0,13.9,0
			c0.6,0,0.9-0.2,0.9-0.8c0-1.2,0-2.5,0-3.7C125.5,24.7,125.3,24.5,124.5,24.5z"/>
		<path class="st1" d="M35.6,9.7c-1.6,0-3.2,0-4.8,0c-0.8,0-1,0.2-1,1c0,3,0,6.1,0,9.1c0,3.1,0,6.2,0,9.2c0,0.7,0.2,1,0.9,1
			c1.6,0,3.2,0,4.8,0c0.7,0,0.9-0.3,0.9-0.9c0-6.2,0-12.3,0-18.5C36.5,10,36.2,9.7,35.6,9.7z"/>
		<path class="st1" d="M33,8.1c1.9,0,3.4-1.5,3.4-3.4c0-1.9-1.5-3.4-3.4-3.4c-1.9,0-3.4,1.5-3.4,3.4C29.6,6.6,31.1,8.1,33,8.1z"/>
	</g>
</g>
</svg>
