<svg id="Layer_1" data-name="Layer 1" xmlns="http://www.w3.org/2000/svg" viewBox="0 0 535.15 152.17"><defs><style>.cls-1{fill:#00a4e2;}.cls-2{fill:#fefeff;}</style></defs><polygon class="cls-1" points="392.92 136.43 404.67 136.43 404.67 130.8 392.92 130.8 392.92 125.67 405.23 125.67 405.23 120.05 384.47 120.05 384.47 148.04 405.58 148.04 405.58 142.41 392.92 142.41 392.92 136.43"/><polygon class="cls-1" points="241.62 136.43 253.38 136.43 253.38 130.8 241.62 130.8 241.62 125.67 253.94 125.67 253.94 120.05 233.18 120.05 233.18 148.04 254.28 148.04 254.28 142.41 241.62 142.41 241.62 136.43"/><polygon class="cls-1" points="309.44 128.86 303.02 120.05 294.25 120.05 305.43 135.38 305.43 148.04 313.87 148.04 313.87 135.22 324.83 120.05 315.89 120.05 309.44 128.86"/><path class="cls-1" d="M287.65,133.16a50.14,50.14,0,0,0-5.17-2.73A12.34,12.34,0,0,1,280,129a1.82,1.82,0,0,1-.71-1.44A1.86,1.86,0,0,1,280,126a3.48,3.48,0,0,1,2.28-.6,10.62,10.62,0,0,1,4.51,1,23.52,23.52,0,0,1,3.83,2.2V122a13.48,13.48,0,0,0-1.78-.89,20.15,20.15,0,0,0-3.28-1,19.65,19.65,0,0,0-4.33-.45,12.82,12.82,0,0,0-5.58,1.09,7.43,7.43,0,0,0-4.5,7,7.41,7.41,0,0,0,1.1,4.06,9.8,9.8,0,0,0,2.84,2.86,25.63,25.63,0,0,0,4,2.1,15.41,15.41,0,0,1,3.18,1.61,2.3,2.3,0,0,1,1.09,1.91,2.18,2.18,0,0,1-.63,1.34c-.43.48-1.36.72-2.81.72a11.13,11.13,0,0,1-4.39-.87,31,31,0,0,1-4.17-2.18v6.86a26.81,26.81,0,0,0,4.35,1.5,24.58,24.58,0,0,0,3.36.62c.84.07,1.55.11,2.13.11a14.17,14.17,0,0,0,5.51-1,8.48,8.48,0,0,0,3.75-2.95,7.73,7.73,0,0,0,1.34-4.54,6.76,6.76,0,0,0-1.1-3.94A10.19,10.19,0,0,0,287.65,133.16Z"/><path class="cls-1" d="M342.83,133.16a50.14,50.14,0,0,0-5.17-2.73,12.49,12.49,0,0,1-2.53-1.47,1.84,1.84,0,0,1-.7-1.44,1.88,1.88,0,0,1,.7-1.49,3.5,3.5,0,0,1,2.28-.6,10.67,10.67,0,0,1,4.52,1,23,23,0,0,1,3.82,2.2V122a12.28,12.28,0,0,0-1.78-.89,19.24,19.24,0,0,0-3.28-1,19.58,19.58,0,0,0-4.33-.45,12.81,12.81,0,0,0-5.57,1.09,7.61,7.61,0,0,0-3.39,2.92,7.72,7.72,0,0,0-1.11,4.09,7.32,7.32,0,0,0,1.1,4.06,9.64,9.64,0,0,0,2.83,2.86,25.76,25.76,0,0,0,4,2.1,15.41,15.41,0,0,1,3.18,1.61,2.27,2.27,0,0,1,1.08,1.91,2.07,2.07,0,0,1-.63,1.34c-.43.48-1.36.72-2.8.72a11.13,11.13,0,0,1-4.39-.87,29.86,29.86,0,0,1-4.17-2.18v6.86a26.81,26.81,0,0,0,4.35,1.5,24.48,24.48,0,0,0,3.35.62c.84.07,1.55.11,2.13.11a14.22,14.22,0,0,0,5.52-1,8.45,8.45,0,0,0,3.74-2.95A7.66,7.66,0,0,0,347,139.9a6.76,6.76,0,0,0-1.1-3.94A10.32,10.32,0,0,0,342.83,133.16Z"/><path class="cls-1" d="M469.33,136a10.32,10.32,0,0,0-3-2.8,51.21,51.21,0,0,0-5.17-2.73,12.49,12.49,0,0,1-2.53-1.47,1.84,1.84,0,0,1-.7-1.44,1.88,1.88,0,0,1,.7-1.49,3.53,3.53,0,0,1,2.29-.6,10.59,10.59,0,0,1,4.51,1,24,24,0,0,1,3.83,2.2V122a13.48,13.48,0,0,0-1.78-.89,20,20,0,0,0-3.29-1,19.49,19.49,0,0,0-4.32-.45,12.82,12.82,0,0,0-5.58,1.09,7.43,7.43,0,0,0-4.5,7,7.41,7.41,0,0,0,1.1,4.06,9.64,9.64,0,0,0,2.83,2.86,26.21,26.21,0,0,0,4,2.1,15.41,15.41,0,0,1,3.18,1.61,2.3,2.3,0,0,1,1.09,1.91,2.14,2.14,0,0,1-.64,1.34c-.43.48-1.36.72-2.8.72a11.13,11.13,0,0,1-4.39-.87,29.23,29.23,0,0,1-4.16-2.18v6.86a25.86,25.86,0,0,0,4.35,1.5,24,24,0,0,0,3.35.62c.83.07,1.55.11,2.13.11a14.24,14.24,0,0,0,5.51-1,8.48,8.48,0,0,0,3.75-2.95,7.73,7.73,0,0,0,1.34-4.54A6.76,6.76,0,0,0,469.33,136Z"/><path class="cls-1" d="M18.35,133.16a50.14,50.14,0,0,0-5.17-2.73A12.79,12.79,0,0,1,10.65,129a1.85,1.85,0,0,1-.71-1.44,1.89,1.89,0,0,1,.71-1.49,3.5,3.5,0,0,1,2.28-.6,10.59,10.59,0,0,1,4.51,1,23.21,23.21,0,0,1,3.84,2.2V122a13.48,13.48,0,0,0-1.78-.89,20.15,20.15,0,0,0-3.28-1,19.67,19.67,0,0,0-4.34-.45,12.81,12.81,0,0,0-5.57,1.09,7.43,7.43,0,0,0-4.5,7,7.4,7.4,0,0,0,1.09,4.06,9.83,9.83,0,0,0,2.85,2.86,24.9,24.9,0,0,0,4,2.1A15.17,15.17,0,0,1,13,138.4a2.29,2.29,0,0,1,1.1,1.91,2.11,2.11,0,0,1-.65,1.34c-.41.48-1.35.72-2.79.72a11.1,11.1,0,0,1-4.39-.87A30.52,30.52,0,0,1,2,139.32v6.86a27.24,27.24,0,0,0,4.36,1.5,24.48,24.48,0,0,0,3.35.62c.85.07,1.56.11,2.13.11a14.19,14.19,0,0,0,5.52-1,8.48,8.48,0,0,0,3.75-2.95,7.73,7.73,0,0,0,1.34-4.54A6.69,6.69,0,0,0,21.38,136,10.15,10.15,0,0,0,18.35,133.16Z"/><polygon class="cls-1" points="350.6 126.86 360.87 126.86 360.87 148.04 369.29 148.04 369.29 126.86 379.54 126.86 379.54 120.05 350.6 120.05 350.6 126.86"/><polygon class="cls-1" points="427.49 130.55 418.89 120.05 411.23 120.05 411.23 148.04 419.43 148.04 419.43 131.83 427.07 141.22 427.73 141.22 435.35 131.83 435.35 148.04 443.8 148.04 443.8 120.05 436.14 120.05 427.49 130.55"/><polygon class="cls-1" points="87.06 126.86 97.32 126.86 97.32 148.04 105.74 148.04 105.74 126.86 116 126.86 116 120.05 87.06 120.05 87.06 126.86"/><polygon class="cls-1" points="63.43 148.04 71.87 148.04 71.87 136.71 83.48 136.71 83.48 131.08 71.87 131.08 71.87 125.67 83.48 125.67 83.48 120.05 63.43 120.05 63.43 148.04"/><path class="cls-1" d="M54.2,123.94a13.66,13.66,0,0,0-5-3.12,19.39,19.39,0,0,0-6.92-1.15,17.79,17.79,0,0,0-8.79,2,13.07,13.07,0,0,0-5.35,5.3,15.21,15.21,0,0,0,0,14.11,13.15,13.15,0,0,0,5.35,5.31,17.73,17.73,0,0,0,8.78,2A18.11,18.11,0,0,0,51,146.47a13.11,13.11,0,0,0,5.38-5.23,14.84,14.84,0,0,0,1.8-7.22,15.23,15.23,0,0,0-1-5.5A13.31,13.31,0,0,0,54.2,123.94Zm-5.48,13.81a6.09,6.09,0,0,1-2.48,2.55,8,8,0,0,1-4,.92,7.19,7.19,0,1,1,0-14.36,8.62,8.62,0,0,1,3.13.53,6.63,6.63,0,0,1,2.29,1.49,6.06,6.06,0,0,1,1.4,2.27,8.27,8.27,0,0,1,.47,2.87A7.89,7.89,0,0,1,48.72,137.75Z"/><polygon class="cls-1" points="157.62 120.05 151.54 135.56 145 120.05 138.96 120.05 132.3 135.56 126.48 120.05 117.73 120.05 129.61 148.41 134.53 148.41 141.99 131.9 149.26 148.41 154.15 148.41 166.27 120.05 157.62 120.05"/><path class="cls-1" d="M176.85,120.05l-12.38,28h8.64l2.32-5.67h12.16l2.29,5.67h8.64l-12.34-28Zm.57,17.45,4.13-10.22,4.11,10.22Z"/><path class="cls-1" d="M224.12,137.59a8,8,0,0,0-2.24-1.87,16,16,0,0,0,2.05-1.27,6.6,6.6,0,0,0,1.73-2.13,7.29,7.29,0,0,0,.81-3.58,9,9,0,0,0-1-3.84,8.61,8.61,0,0,0-3.21-3.44,10.45,10.45,0,0,0-5.69-1.41H202.24v28h8.44V137.12h.95a6.59,6.59,0,0,1,2.37.35,4.75,4.75,0,0,1,1.89,1.62,20.41,20.41,0,0,1,2.19,4l2.19,5h9.07L226.52,142A24,24,0,0,0,224.12,137.59Zm-7.39-6.1a9.13,9.13,0,0,1-4.24.68h-1.81v-6.74h1.78a8.41,8.41,0,0,1,4.14.76,2.91,2.91,0,0,1,1.27,2.7A2.76,2.76,0,0,1,216.73,131.49Z"/><path class="cls-2" d="M85.73,33.64c-5.74,0-11.49,0-17.23,0a3.19,3.19,0,0,0-2.65,1.3c-6.36,7.78-12.78,15.51-19.09,23.33-1,1.28-1.51,1.21-2.49,0C38,50.46,31.62,42.76,25.33,35a3.43,3.43,0,0,0-2.93-1.39c-5.52,0-11,0-16.55,0-2.69,0-3.46.8-3.46,3.52q0,34,0,68.05c0,2.72.77,3.52,3.46,3.53h17c2.73,0,3.52-.8,3.52-3.47q0-16.38,0-32.74a3.46,3.46,0,0,1,.2-1.91c.6.22.85.75,1.19,1.18,4.89,5.94,9.75,11.9,14.66,17.83,1.81,2.19,3.75,2.16,5.58,0s3.72-4.53,5.57-6.79l10-12.24.42.15v1.85q0,16.46,0,32.91c0,2.34.86,3.23,3.21,3.24q9.22,0,18.44,0c2.11,0,3-1,3-3.08q0-34.47,0-68.92C88.76,34.61,87.84,33.65,85.73,33.64Z"/><path class="cls-2" d="M211,83.5a20.17,20.17,0,0,0-5.25-6.75c-1.26-1-.92-1.48.22-2.17a17.47,17.47,0,0,0,7.78-10.4A23.84,23.84,0,0,0,196,34.6a44,44,0,0,0-10.1-.94c-10.91-.09-21.83,0-32.74,0-2.85,0-3.59.75-3.59,3.56q0,17,0,34t0,34.12c0,2.61.79,3.45,3.35,3.46H171c2.34,0,3.24-.92,3.25-3.23,0-3.74,0-7.47,0-11.2,0-3.91,0-7.81,0-11.72,0-.81-.08-1.69,1.12-1.74,3.29-.15,6.25.45,8.5,3.2a38.72,38.72,0,0,1,5.06,8.38c2.25,4.91,4.42,9.84,6.62,14.78.37.82.77,1.52,1.84,1.52,7.3,0,14.59,0,21.89,0a2.31,2.31,0,0,0,2.09-3.4C217.94,98,214.76,90.63,211,83.5ZM188.36,62.25a5.7,5.7,0,0,1-3.73,1.91,46.5,46.5,0,0,1-8.9.49c-1.13,0-1.5-.53-1.48-1.59,0-1.83,0-3.67,0-5.5s0-3.55,0-5.33c0-.91.36-1.4,1.31-1.4,3.09,0,6.19-.15,9.21.72A7.09,7.09,0,0,1,188.36,62.25Z"/><path class="cls-2" d="M303.12,83.41c-7-15.92-14-31.83-21-47.77a2.91,2.91,0,0,0-3.11-2q-10.75.09-21.54,0a2.81,2.81,0,0,0-3,1.92c-3,7-6.14,14-9.22,21q-10.65,24.1-21.3,48.21c-1.12,2.53-.18,4,2.58,4,6.49,0,13,0,19.46,0a2.4,2.4,0,0,0,2.57-1.76c1.43-3.7,3-7.33,4.45-11a2.39,2.39,0,0,1,2.58-1.74c4.2.07,8.39,0,12.58,0s8.5,0,12.75,0A2.33,2.33,0,0,1,283.48,96c1.44,3.75,3,7.45,4.48,11.19a2.18,2.18,0,0,0,2.31,1.6c6.61,0,13.21,0,19.81,0,2.52,0,3.48-1.57,2.47-3.87Q307.84,94.13,303.12,83.41Zm-30.48-5c-3.56,0-7.11,0-10.67,0-1.33,0-1.6-.47-1.11-1.67q3.56-8.67,7.06-17.37c.08-.19.22-.36.54-.89L275.06,75C276.44,78.43,276.43,78.43,272.64,78.43Z"/><path class="cls-2" d="M526.07,90.84c-8.79,0-17.58,0-26.36,0-1.67,0-2.24-.52-2.16-2.18.12-2.4,0-4.81,0-7.23s0-2.37,2.41-2.37q12.15,0,24.3,0c2.47,0,3.3-.85,3.3-3.32,0-3.45,0-6.89,0-10.34,0-3.69-.52-4.22-4.15-4.22H500c-2.43,0-2.43,0-2.44-2.35,0-1.38,0-2.75,0-4.13,0-3.31-.41-3.21,3.13-3.21q12.41,0,24.81,0c2.72,0,3.66-.92,3.67-3.59q0-5.34,0-10.68c0-2.67-1-3.6-3.67-3.6q-24.56,0-49.11,0c-2.78,0-3.53.77-3.53,3.61V71.19q0,17.15,0,34.28c0,2.3.85,3.25,3,3.25q25.5,0,51,0c2.11,0,3-1,3.05-3.07,0-3.62,0-7.24,0-10.86C530,91.49,529.34,90.84,526.07,90.84Z"/><path class="cls-2" d="M388.55,85.3c0-2.75-1.69-3.75-4-2.33a43.3,43.3,0,0,1-14.29,5.8c-5.42,1-10.87,1.33-16.14-.69-7.06-2.71-11.66-7.61-12.29-15.36s3.26-13.89,10.56-17.36c6.89-3.27,14-3.22,21.18-1.13,3.94,1.14,7.46,3.26,11,5.31a2.3,2.3,0,0,0,3.67-2.07c0-2.87,0-5.74,0-8.61,0-2.65-.1-5.3,0-7.93A2.62,2.62,0,0,0,386,37.86c-2.66-.73-5.26-1.67-7.92-2.38-11.61-3.13-23.31-4.07-35-.54-11.21,3.38-19.7,10-24.05,21.19A41.27,41.27,0,0,0,316.76,76c1.58,14,8.79,24,21.64,29.85,6.17,2.8,12.73,3.74,19.47,3.81,10.08.1,19.78-1.44,28.87-6a2.85,2.85,0,0,0,1.84-2.92C388.5,95.53,388.56,90.41,388.55,85.3Z"/><path class="cls-2" d="M456.58,88.09h-26.2c-2.77,0-2.77,0-2.77-2.69V37c0-2.46-.85-3.32-3.31-3.33-6,0-11.95,0-17.93,0-2.69,0-3.46.8-3.46,3.52q0,17,0,33.94,0,17.23,0,34.47c0,2.24.88,3.16,3.13,3.16q25.59,0,51.18,0c2.27,0,3.14-.9,3.15-3.14q0-6.89,0-13.78C460.37,88.77,459.67,88.09,456.58,88.09Z"/><path class="cls-2" d="M128.27,33.63q-8.87,0-17.74,0c-2.91,0-3.66.78-3.66,3.7V71.08q0,17.06,0,34.11c0,2.68.8,3.52,3.46,3.53,6,0,11.94,0,17.92,0,2.47,0,3.48-1,3.48-3.44q0-34.11,0-68.21C131.74,34.63,130.74,33.64,128.27,33.63Z"/><path class="cls-2" d="M118.84,27.75a12.59,12.59,0,1,0-12.59-12.58A12.59,12.59,0,0,0,118.84,27.75Z"/></svg>